<?xml version="1.0" encoding="UTF-8" standalone="no"?><!-- Generator: Adobe Illustrator 18.0.0, SVG Export Plug-In . SVG Version: 6.00 Build 0)  --><svg xmlns="http://www.w3.org/2000/svg" xmlns:xlink="http://www.w3.org/1999/xlink" xml:space="preserve" contentScriptType="text/ecmascript" zoomAndPan="magnify" contentStyleType="text/css" preserveAspectRatio="xMidYMid meet" version="1.1" id="图层_1" mapName="天津市" mapType="省市地图" viewBox="-60 0 500 300" x="0px" y="0px" width="800" height="480" style="overflow:hidden;">
    <g id="Plan_x0020_1">
        <metadata id="CorelCorpID_0Corel-Layer" stroke-miterlimit="10" stroke="#FFFFFF"/>
        <path name='河西区' fill="#D3D3D3" d="M83.3537 191.47c0.6594,1.1718 1.555,2.0623 2.0673,3.3391 0.2545,0.6341 0.4009,1.1189 0.9121,1.5964 0.3832,0.358 1.726,0.6405 2.27,0.5381l0 0c0.3418,0.2225 0.6309,0.3163 1.0985,0.3759 0.4558,0.058 1.0248,-0.0855 1.4593,0.0488l0.6566 0.5118 0 0c-0.7467,0.5994 -0.3382,0.8078 -0.5108,1.5112 -0.2163,0.8809 -0.9651,0.9249 -1.7268,0.9749 -0.5628,0.037 -0.4239,0.9682 -0.7783,1.2186 -0.6758,0.4773 -1.4713,0.617 -2.3106,0.4875 -1.0874,-0.1679 -0.8941,-1.3569 -1.8728,-1.2187 -0.6977,0.0986 -1.3622,0.2721 -1.9701,0.6337l0 0c-0.4497,-0.7215 -1.1013,-1.286 -1.5566,-2.0717 -0.3583,-0.6185 -0.6886,-1.1865 -1.4593,-0.8774 -0.2338,0.0938 -0.4549,0.2036 -0.6654,0.32l0 0 -0.5991 -1.0878c-0.1472,-1.4453 -0.2918,-2.8324 -0.2918,-4.3018l0 0c0.5374,0.1574 1.0422,0.6093 1.6295,0.6093 0.9852,0 0.8722,-1.3199 1.6782,-1.4502 0.5,-0.0809 0.5228,-0.5083 0.8878,-0.7556 0.3742,-0.2536 0.6013,-0.4021 1.0823,-0.4021l0 0z" stroke-miterlimit="10" stroke="#FFFFFF"/>
        <path name='和平区' fill="#D3D3D3" d="M78.0759 193.468c0.5374,0.1574 1.0422,0.6093 1.6295,0.6093 0.9852,0 0.8722,-1.3199 1.6782,-1.4502 0.5,-0.0809 0.5228,-0.5083 0.8878,-0.7556 0.3742,-0.2536 0.6013,-0.4021 1.0823,-0.4021l0 0 -0.5229 -0.7556c-0.2644,-0.2639 -0.5277,-0.5577 -0.6689,-0.914 -0.1317,-0.3321 -0.0098,-0.7433 -0.1338,-1.0968l0 0c-0.2043,0.0256 -0.4626,0.222 -0.6323,0.3291 -0.1761,0.111 -0.3169,0.181 -0.4986,0.2559 -0.3489,0.1437 -0.7488,-0.2715 -1.0094,-0.4509l0 0 -0.2797 -0.1219c-0.6491,-0.5767 -1.362,-0.3888 -1.362,0.5241 0,0.8419 -0.1824,1.6541 -0.1824,2.486 0,0.5095 0.1434,1.2741 0.0122,1.7427l0 0z" stroke-miterlimit="10" stroke="#FFFFFF"/>
        <path name='南开区' fill="#D3D3D3" d="M71.4905 185.552c-0.5038,0.9875 -1.6921,1.7932 -1.7573,2.9441 -0.0333,0.5878 0.1062,1.2376 0.5107,1.6817 0.5235,0.5749 1.3564,0.5704 1.7026,1.438 0,1.9268 0.2662,2.7488 1.1188,4.4847 0.5567,1.1337 1.2113,2.0326 2.0187,2.9979 1.435,1.7154 2.4083,0.5743 3.8828,-0.2406l0 0 -0.5991 -1.0878c-0.1472,-1.4453 -0.2918,-2.8324 -0.2918,-4.3018l0 0c0.1312,-0.4686 -0.0122,-1.2332 -0.0122,-1.7427 0,-0.8319 0.1824,-1.6441 0.1824,-2.486 0,-0.9129 0.7129,-1.1008 1.362,-0.5241l0.2797 0.1219 0 0 -0.0486 -1.9499 0 0c-0.4101,0 -0.8355,0.1585 -1.2769,0.1585 -0.3244,0 -0.9585,-0.1655 -1.2404,-0.0244 -0.282,0.1413 -0.101,0.4848 -0.4135,0.6459 -0.1853,0.0956 -0.7138,-0.1207 -0.9242,-0.1463l-1.4958 -0.1828c-0.8899,-0.1087 -0.1837,-0.9903 -1.1553,-0.6458 -0.3484,0.1236 -0.6214,0.0952 -0.7904,-0.3169l-1.0522 -0.8236 0 0z" stroke-miterlimit="10" stroke="#FFFFFF"/>
        <path name='河北区' fill="#D3D3D3" d="M79.8878 188.838c0.2606,0.1794 0.6605,0.5946 1.0094,0.4509 0.1817,-0.0749 0.3225,-0.1449 0.4986,-0.2559 0.1697,-0.1071 0.428,-0.3035 0.6323,-0.3291l0 0c-0.3473,-0.3745 -1.3584,-0.6315 -0.9485,-1.4258 0.1083,-0.2098 0.5244,-0.1266 0.7053,-0.3534 0.1772,-0.222 0.3917,-0.5362 0.6932,-0.5362 0.0705,0.2869 0.4235,0.857 0.7783,0.8409 0.359,-0.0162 0.378,-0.5728 0.8269,-0.5728 0.5863,0 1.3991,0.1247 1.9458,-0.0366 0.3763,-0.1111 0.3648,-0.3129 0.3648,-0.6458 0,-0.433 0.5576,-1.2966 0.8999,-1.4868l0 0c-0.3255,-0.1957 -0.1093,-0.9135 -0.2432,-1.2308 -0.1686,-0.3996 -0.9112,-0.3249 -1.0702,-0.8044 -0.2448,-0.7386 0.1515,-1.2444 -0.6567,-1.6939 -0.4511,-0.251 -0.7064,-0.4128 -1.119,-0.719l0 0c-1.4094,0.8236 -2.7664,-0.5303 -4.1347,-0.0731 -0.9582,0.3202 -2.2893,0.9641 -3.3699,0.7982l0 0 0.3786 0.6642c0.5326,0.4514 0.863,-0.2395 0.9364,0.7312 0.0307,0.4062 0.1455,0.7721 0.1216,1.1942 -0.0161,0.2845 -0.2602,0.4204 -0.3162,0.6947 -0.1336,0.6547 1.2127,1.8246 1.6295,2.2423l0.3892 0.5971 0 0 0.0486 1.9499 0 0z" stroke-miterlimit="10" stroke="#FFFFFF"/>
        <path name='河东区' fill="#D3D3D3" d="M83.3537 191.47c0.6594,1.1718 1.555,2.0623 2.0673,3.3391 0.2545,0.6341 0.4009,1.1189 0.9121,1.5964 0.3832,0.358 1.726,0.6405 2.27,0.5381l0 0c-0.0871,-0.0566 -0.1777,-0.1218 -0.2756,-0.1968 -1.0226,-0.7841 1.1422,-0.9421 1.6052,-1.0115 0.825,-0.1236 1.0608,-0.315 1.8728,0.0609 1.231,0.5697 1.0431,0.1383 1.5687,-0.8409 0.3072,-0.5723 0.1985,-0.5771 -0.0608,-1.1455l-2.724 -1.0115c-0.9886,-0.367 -1.6344,-0.0184 -1.4228,-1.2917 0.0783,-0.4718 -0.0551,-1.1419 0.0729,-1.5599 0.0736,-0.2403 1.3611,-0.7351 1.6782,-0.9506 0.2776,-0.1888 -0.2675,-1.823 -0.2675,-2.2179 -0.1749,-0.1004 -0.5373,0.0588 -0.754,0.0243 -0.2868,-0.0456 -0.4521,-0.2458 -0.7175,-0.329 -0.6178,-0.3445 0,-1.221 0,-1.6817 0,-0.5979 -1.4974,-0.0718 -1.8849,-0.3047l0 0c-0.3423,0.1902 -0.8999,1.0538 -0.8999,1.4868 0,0.3329 0.0115,0.5347 -0.3648,0.6458 -0.5467,0.1613 -1.3595,0.0366 -1.9458,0.0366 -0.4489,0 -0.4679,0.5566 -0.8269,0.5728 -0.3548,0.0161 -0.7078,-0.554 -0.7783,-0.8409 -0.3015,0 -0.516,0.3142 -0.6932,0.5362 -0.1809,0.2268 -0.597,0.1436 -0.7053,0.3534 -0.4099,0.7943 0.6012,1.0513 0.9485,1.4258l0 0c0.124,0.3535 0.0021,0.7647 0.1338,1.0968 0.1412,0.3563 0.4045,0.6501 0.6689,0.914l0.5229 0.7556 0 0z" stroke-miterlimit="10" stroke="#FFFFFF"/>
        <path name='东丽区' fill="#D3D3D3" d="M88.6031 196.943c0.3418,0.2225 0.6309,0.3163 1.0985,0.3759 0.4558,0.058 1.0248,-0.0855 1.4593,0.0488l0.6566 0.5118 0 0c2.578,-0.2503 3.2329,0.1441 4.6455,2.0717 1.104,1.5066 2.7716,1.0481 4.5482,1.0481 2.1178,0 1.8534,3.8626 4.1834,4.7284 1.3302,0.4942 6.5912,1.3286 6.5912,-1.1212 0.3847,0 1.6109,-0.1553 1.6539,0.2681 0.0616,0.6054 -1.2144,2.5226 0.3648,2.8273 0.9829,0.1897 2.008,-2.0784 2.9916,0.6337 0.1671,0.2427 0.3446,0.4684 0.5351,0.6824 0.5635,0.6331 1.4464,0.6268 1.9701,-0.0731l0.5108 -0.39 0 0c0.0844,-0.8042 0.2433,-2.0009 -0.0973,-2.7297 -1.0645,-2.278 0.2871,-2.0732 0.8512,-3.8997 0.2409,-0.7798 0.5352,-1.1532 1.1675,-0.8044 0.5204,0.2872 1.4607,-0.189 1.9701,-0.3168 0.1617,-0.6523 -0.1811,-1.2209 0.1702,-1.8524 0.3384,-0.6081 0.681,-1.3748 0.681,-2.0717 -1.0597,-0.266 -1.3377,0.1955 -1.3377,-1.2186 0,-0.6335 0.1845,-1.8768 -0.681,-1.8768 -0.542,0 -1.2827,0.4668 -1.4593,-0.2437 -0.3139,-1.2631 -3.3035,-0.5274 -4.2807,-0.8531 0,-0.9503 0.9,-2.1083 0.9,-3.3391 0.1521,-0.9662 0.088,-2.0777 0.608,-2.9004 0.5515,-0.8723 1.0304,-0.2187 1.7269,0.2925 0.7053,0.5178 2.5953,1.7548 2.8943,0.195 0.0973,-0.5075 -0.4712,-1.0911 0.0243,-1.633 0.3569,-0.3902 1.0136,-0.5779 1.4836,-0.8774l1.4105 -0.5606 0 0 -1.0213 -1.243c-0.3933,-0.3941 -0.8368,-1.8264 -1.362,-1.9011 -0.6821,-1.1961 -4.9949,-0.3228 -5.6184,-2.8273 -0.4614,-0.1982 -1.2693,1.4676 -1.9944,0.0975 -0.1691,-0.3194 -0.0065,-1.582 -0.3648,-1.633 -0.2153,-0.3775 -0.8573,-0.0777 -0.6567,-0.7312 0.1433,-0.4672 0.3147,-0.9494 -0.2676,-1.1943 -1.0864,-0.4571 -2.161,-0.596 -2.8943,-1.5843 -0.5181,-0.6981 -1.4532,0.4413 -2.0187,0.6581 -1.2312,0.4722 -1.7181,-0.0687 -2.6997,1.0481 -1.3048,1.4843 -1.4837,-1.3803 -1.4837,-2.023 -0.0412,-0.0331 -0.0855,-0.0379 -0.0973,-0.0731 -0.2241,0 -0.3806,-0.0536 -0.608,-0.1219l0 0 -1.0702 0.7799c-1.5886,1.5929 -4.0294,0.2867 -5.6913,-0.2681 -1.8614,-0.6213 -3.5368,-0.4612 -5.4238,-1.2674 -0.6417,-0.2742 -2.7604,-1.5933 -1.6296,0.4388 0.2403,0.432 0.681,0.6742 0.681,1.1699 0,2.5081 -0.3717,1.9491 -2.5295,2.9979 -2.3779,1.1559 -3.226,1.947 -4.8887,3.8509l0 0c0.4126,0.3062 0.6679,0.468 1.119,0.719 0.8082,0.4495 0.4119,0.9553 0.6567,1.6939 0.159,0.4795 0.9016,0.4048 1.0702,0.8044 0.1339,0.3173 -0.0823,1.0351 0.2432,1.2308l0 0c0.3875,0.2329 1.8849,-0.2932 1.8849,0.3047 0,0.4607 -0.6178,1.3372 0,1.6817 0.2654,0.0832 0.4307,0.2834 0.7175,0.329 0.2167,0.0345 0.5791,-0.1247 0.754,-0.0243 0,0.3949 0.5451,2.0291 0.2675,2.2179 -0.3171,0.2155 -1.6046,0.7103 -1.6782,0.9506 -0.128,0.418 0.0054,1.0881 -0.0729,1.5599 -0.2116,1.2733 0.4342,0.9247 1.4228,1.2917l2.724 1.0115c0.2593,0.5684 0.368,0.5732 0.0608,1.1455 -0.5256,0.9792 -0.3377,1.4106 -1.5687,0.8409 -0.812,-0.3759 -1.0478,-0.1845 -1.8728,-0.0609 -0.463,0.0694 -2.6278,0.2274 -1.6052,1.0115 0.0979,0.075 0.1885,0.1402 0.2756,0.1968l0 0z" stroke-miterlimit="10" stroke="#FFFFFF"/>
        <path name='津南区' fill="#D3D3D3" d="M82.6481 201.487c0.6079,-0.3616 1.2724,-0.5351 1.9701,-0.6337 0.9787,-0.1382 0.7854,1.0508 1.8728,1.2187 0.8393,0.1295 1.6348,-0.0102 2.3106,-0.4875 0.3544,-0.2504 0.2155,-1.1816 0.7783,-1.2186 0.7617,-0.05 1.5105,-0.094 1.7268,-0.9749 0.1726,-0.7034 -0.2359,-0.9118 0.5108,-1.5112l0 0c2.578,-0.2503 3.2329,0.1441 4.6455,2.0717 1.104,1.5066 2.7716,1.0481 4.5482,1.0481 2.1178,0 1.8534,3.8626 4.1834,4.7284 1.3302,0.4942 6.5912,1.3286 6.5912,-1.1212 0.3847,0 1.6109,-0.1553 1.6539,0.2681 0.0616,0.6054 -1.2144,2.5226 0.3648,2.8273 0.9829,0.1897 2.008,-2.0784 2.9916,0.6337 0.1671,0.2427 0.3446,0.4684 0.5351,0.6824 0.5635,0.6331 1.4464,0.6268 1.9701,-0.0731l0.5108 -0.39 0 0 2.5781 1.9499c0.6207,0.4696 2.1118,0.1761 1.7268,1.0968 -0.3242,0.7751 -0.7016,1.538 -1.1188,2.2667 -0.3714,0.6489 -0.4846,1.7542 -0.3648,2.5348 0.1294,0.8436 1.3379,3.1689 -0.1216,2.8029 -1.2856,-0.3223 -2.5412,-2.8957 -3.624,-1.1699 -0.6747,1.0755 -1.0309,0.5849 -2.0673,0.5849 -0.2773,0.8319 0.4451,1.9507 0.1459,2.9004 -0.6302,3.1648 -1.5567,2.4663 -3.7456,4.0216 -1.9319,1.3726 -3.1066,2.0277 -3.9158,4.4603 -0.313,0.9412 0.0104,2.5037 -1.3134,1.6817 -0.9475,-0.5883 -1.7966,-2.3176 -2.2133,-3.3147 -0.5562,-1.3312 -4.2051,1.5797 -4.8644,2.2911 -0.9252,0.9985 -2.0158,2.2676 -3.1618,3.0222l0 0 0.1216 -1.1699c-0.3611,-1.1564 -0.8506,-2.4098 -1.2891,-3.461 -0.4077,-0.9776 -1.1907,-1.908 -2.2376,-2.2423 -0.8521,-0.2722 -1.3047,-0.2133 -1.7998,-1.048 -1.6053,-1.7553 -2.4964,-2.4478 -3.2835,-4.6066 -0.1304,-0.3577 -0.7786,-0.5835 -0.8026,-0.9261 -0.0405,-0.5759 0.3118,-1.3226 0.1216,-1.8524 -0.1845,-0.5136 -2.4256,-0.9053 -1.7025,-1.2674 1.2631,-0.6324 1.8526,-0.9583 2.3105,-2.3642 0.1026,-0.3149 -0.1056,-1.5555 0.3405,-1.5842 0.6995,-0.0449 0.8957,1.788 1.5323,1.0967 0.4069,-0.4417 0.4634,-1.7563 0.6567,-2.3885 0.0852,-0.2786 0.7654,-2.4947 0.2189,-2.3642 -1.5595,0.3727 -1.7874,-0.6396 -1.9457,-1.9499 -0.6317,-0.3373 -1.6621,-1.0784 -1.5566,-1.9011 0.0703,-0.5476 0.2681,-1.1172 0.1945,-1.633 -1.1877,-0.2957 -2.4133,-0.0099 -3.6483,-0.4387 -1.3251,-0.46 -1.4849,-1.0742 -2.3349,-2.0961l0 0z" stroke-miterlimit="10" stroke="#FFFFFF"/>
        <path name='西青区' fill="#D3D3D3" d="M78.9668 198.858c0.2105,-0.1164 0.4316,-0.2262 0.6654,-0.32 0.7707,-0.3091 1.101,0.2589 1.4593,0.8774 0.4553,0.7857 1.1069,1.3502 1.5566,2.0717l0 0c0.85,1.0219 1.0098,1.6361 2.3349,2.0961 1.235,0.4288 2.4606,0.143 3.6483,0.4387 0.0736,0.5158 -0.1242,1.0854 -0.1945,1.633 -0.1055,0.8227 0.9249,1.5638 1.5566,1.9011 0.1583,1.3103 0.3862,2.3226 1.9457,1.9499 0.5465,-0.1305 -0.1337,2.0856 -0.2189,2.3642 -0.1933,0.6322 -0.2498,1.9468 -0.6567,2.3885 -0.6366,0.6913 -0.8328,-1.1416 -1.5323,-1.0967 -0.4461,0.0287 -0.2379,1.2693 -0.3405,1.5842 -0.4579,1.4059 -1.0474,1.7318 -2.3105,2.3642 -0.7231,0.3621 1.518,0.7538 1.7025,1.2674 0.1902,0.5298 -0.1621,1.2765 -0.1216,1.8524 0.024,0.3426 0.6722,0.5684 0.8026,0.9261 0.7871,2.1588 1.6782,2.8513 3.2835,4.6066 0.4951,0.8347 0.9477,0.7758 1.7998,1.048 1.0469,0.3343 1.8299,1.2647 2.2376,2.2423 0.4385,1.0512 0.928,2.3046 1.2891,3.461l-0.1216 1.1699 0 0c-0.3964,0.6347 -1.4372,1.0504 -1.6539,1.7549 -0.1865,0.6067 1.247,1.0806 0.8756,1.6817 -0.29,0.4695 -1.1839,0.2566 -1.581,0.1219 -0.7893,-0.2676 -1.0692,-0.5809 -1.7268,-1.0481 -0.8148,-0.579 -2.0921,-1.1738 -3.0646,-1.4136 -0.8038,-0.1983 -2.5339,-1.0399 -3.259,-0.8531l0 0c-1.0481,-0.9618 -2.3067,-1.4538 -3.4658,-2.2423 -1.0232,-0.6959 -1.4728,-1.8823 -2.189,-2.7907l-1.739 -2.2058c-0.713,-0.9043 -1.6745,-1.5607 -2.2619,-2.5835l-2.5781 -4.704c-0.6806,-1.2417 -2.026,-2.4114 -2.4565,-3.7413 -1.0793,-1.6235 -1.4209,-2.381 -3.3442,-3.0832 -1.3314,-0.486 -2.8145,-1.3944 -4.0131,-2.1448 -0.5899,-0.3694 -1.3907,-1.4242 -1.9822,-0.6581 -0.8631,1.1177 -1.8299,0.8273 -2.7241,-0.1462 -0.3391,-0.584 0.0539,-1.2789 -0.1094,-1.9255 -0.0774,-0.3064 -0.109,-1.2853 -0.2311,-1.4624 -0.5832,-0.8463 -2.0338,-0.8898 -2.9186,-1.2674 -0.7056,-0.3012 -1.5629,-0.6714 -2.3227,-0.7799 -1.155,-0.1649 -1.9725,-0.4618 -2.6511,-1.4502 -0.9519,-1.503 -1.9159,-3.0355 -3.8793,-2.6811 -0.7222,0.1304 -0.3986,-0.6966 -0.9364,-0.9505 -0.7018,-0.3315 -1.7027,-0.2925 -2.4808,-0.2925 -0.1541,0 -1.0705,0.0607 -1.1066,-0.0122 -0.4399,-0.0631 -0.1804,-0.7815 -0.073,-1.0115 0.2611,-0.5587 0.4837,-0.5438 -0.0973,-0.9627l-1.1928 -0.0343 0 0c0.3999,-0.5028 0.712,-1.0024 0.8158,-1.355 0.2635,-0.8948 0.1452,-1.7342 0.7054,-2.4982 0.2207,-0.3011 0.7556,0.0835 1.1309,-0.2925 0.2881,-0.9241 0.4373,-2.1814 0.2049,-3.2716l0 0 1.4241 -0.8353c0.4742,-0.3259 0.2199,-0.7438 0.5478,-1.0724 0.2273,-0.2277 0.6324,-0.5916 0.6324,-0.9384 0,-0.2145 -0.515,-0.446 -0.6202,-0.7068 -0.2588,-0.6419 0.0178,-1.2069 0.6567,-1.3893 0.6982,-0.1992 0.9684,-0.4743 1.5201,-0.9261l0 0c0.722,0.0679 1.0217,-0.3277 1.5809,-0.6947 1.0006,-0.6565 0.8714,-0.1903 1.3012,0.4997 1.1508,0.1154 3.4525,-0.4096 4.3171,0.5118 0.3833,0.4084 0.5285,1.1845 0.6324,1.7061 0.0826,0.4142 1.32,0.3784 1.5687,0.0975 0,-0.9201 -0.476,-2.4572 0.7905,-2.7176 0.7183,-0.1477 0.3138,0.7382 0.5472,1.2065 0.3761,0.7547 1.487,0.4631 2.2133,0.4631 0.3931,0.1272 2.2384,0.2577 2.5903,0.1219 0.6596,-0.2544 0.3156,-1.1871 0.6445,-1.7062 0.2565,-0.405 2.4709,-0.8467 3.0037,-0.9261 0.554,-0.0825 1.011,0.1538 1.5201,0.3046 0.5601,0.1658 1.0437,0.1213 1.6174,0.0853l0 0c0.1631,1.0626 0.0432,1.8949 -0.353,2.8882 -0.027,0.0676 -0.0575,0.1343 -0.0911,0.2001l0 0c-0.5038,0.9875 -1.6921,1.7932 -1.7573,2.9441 -0.0333,0.5878 0.1062,1.2376 0.5107,1.6817 0.5235,0.5749 1.3564,0.5704 1.7026,1.438 0,1.9268 0.2662,2.7488 1.1188,4.4847 0.5567,1.1337 1.2113,2.0326 2.0187,2.9979 1.435,1.7154 2.4083,0.5743 3.8828,-0.2406l0 0z" stroke-miterlimit="10" stroke="#FFFFFF"/>
        <path name='红桥区' fill="#D3D3D3" d="M72.5059 178.308c-0.3655,-0.0846 -0.5598,-0.1136 -0.8999,0.0975 -0.198,0.123 -0.4461,0.312 -0.5351,0.5118 -0.0635,0.1424 -0.0591,0.4131 -0.0487,0.585 0.0235,0.3854 0.3656,0.5162 0.7054,0.39 0.2539,-0.0944 0.3894,-0.1267 0.5837,-0.3413 0.1828,-0.2017 0.3622,-0.5551 0.4864,-0.8043l-0.2918 -0.4387zm-1.0154 7.2439l1.0522 0.8236c0.169,0.4121 0.442,0.4405 0.7904,0.3169 0.9716,-0.3445 0.2654,0.5371 1.1553,0.6458l1.4958 0.1828c0.2104,0.0256 0.7389,0.2419 0.9242,0.1463 0.3125,-0.1611 0.1315,-0.5046 0.4135,-0.6459 0.2819,-0.1411 0.916,0.0244 1.2404,0.0244 0.4414,0 0.8668,-0.1585 1.2769,-0.1585l0 0 -0.3892 -0.5971c-0.4168,-0.4177 -1.7631,-1.5876 -1.6295,-2.2423 0.056,-0.2743 0.3001,-0.4102 0.3162,-0.6947 0.0239,-0.4221 -0.0909,-0.788 -0.1216,-1.1942 -0.0734,-0.9707 -0.4038,-0.2798 -0.9364,-0.7312l-0.3786 -0.6642 0 0c-0.2367,-0.0363 -0.4614,-0.1116 -0.6675,-0.2376 -0.984,-0.6013 -1.4768,-0.0296 -2.4079,-0.3169 -0.8663,-0.2672 -1.2916,1.6843 -1.6901,2.2545l0 0c0.1631,1.0626 0.0432,1.8949 -0.353,2.8882 -0.027,0.0676 -0.0575,0.1343 -0.0911,0.2001l0 0z" stroke-miterlimit="10" stroke="#FFFFFF"/>
        <path name='北辰区' fill="#D3D3D3" d="M72.5059 178.308c-0.3655,-0.0846 -0.5598,-0.1136 -0.8999,0.0975 -0.198,0.123 -0.4461,0.312 -0.5351,0.5118 -0.0635,0.1424 -0.0591,0.4131 -0.0487,0.585 0.0235,0.3854 0.3656,0.5162 0.7054,0.39 0.2539,-0.0944 0.3894,-0.1267 0.5837,-0.3413 0.1828,-0.2017 0.3622,-0.5551 0.4864,-0.8043l-0.2918 -0.4387zm-22.8986 5.2037c0.722,0.0679 1.0217,-0.3277 1.5809,-0.6947 1.0006,-0.6565 0.8714,-0.1903 1.3012,0.4997 1.1508,0.1154 3.4525,-0.4096 4.3171,0.5118 0.3833,0.4084 0.5285,1.1845 0.6324,1.7061 0.0826,0.4142 1.32,0.3784 1.5687,0.0975 0,-0.9201 -0.476,-2.4572 0.7905,-2.7176 0.7183,-0.1477 0.3138,0.7382 0.5472,1.2065 0.3761,0.7547 1.487,0.4631 2.2133,0.4631 0.3931,0.1272 2.2384,0.2577 2.5903,0.1219 0.6596,-0.2544 0.3156,-1.1871 0.6445,-1.7062 0.2565,-0.405 2.4709,-0.8467 3.0037,-0.9261 0.554,-0.0825 1.011,0.1538 1.5201,0.3046 0.5601,0.1658 1.0437,0.1213 1.6174,0.0853l0 0c0.3985,-0.5702 0.8238,-2.5217 1.6901,-2.2545 0.9311,0.2873 1.4239,-0.2844 2.4079,0.3169 0.2061,0.126 0.4308,0.2013 0.6675,0.2376l0 0c1.0806,0.1659 2.4117,-0.478 3.3699,-0.7982 1.3683,-0.4572 2.7253,0.8967 4.1347,0.0731l0 0c1.6627,-1.9039 2.5108,-2.695 4.8887,-3.8509 2.1578,-1.0488 2.5295,-0.4898 2.5295,-2.9979 0,-0.4957 -0.4407,-0.7379 -0.681,-1.1699 -1.1308,-2.0321 0.9879,-0.713 1.6296,-0.4388 1.887,0.8062 3.5624,0.6461 5.4238,1.2674 1.6619,0.5548 4.1027,1.861 5.6913,0.2681l1.0702 -0.7799 0 0c0,-1.8128 -1.5779,-2.8049 0.0729,-4.4603 1.1451,-1.1484 0.0473,-3.7539 -1.7511,-2.5104 -1.3048,0.9023 -1.6909,-0.2023 -2.3836,-1.0481 -0.3877,-0.4735 -1.0638,-0.585 -1.3863,-1.1942 -0.3331,-0.6295 -0.6183,-0.8554 -1.0702,-1.3649 -0.5525,-0.6227 -1.2176,-0.2316 -1.5809,-1.2431 -0.5949,-1.6567 0.2992,-0.8987 -1.3377,-1.8279l0 0 -1.0945 -0.8044c-0.6693,-0.2787 -1.1465,-0.8107 -1.4593,-1.438 -0.2847,-0.5707 -0.6634,-0.7745 -1.1918,-1.1211 -0.4316,-0.283 -2.733,-0.6181 -3.2835,-0.5119 -0.9842,0.1899 -0.9755,-0.3255 -1.7268,-0.6337 -0.4314,-0.177 -0.9325,-0.051 -1.3864,0.0732 -0.9093,0.2268 -1.9381,-0.1818 -2.8457,0.0974 -1.0042,0.309 -1.0774,0.7838 -1.8971,1.1943 -1.2766,0.6392 -1.1414,3.4358 -3.3564,2.7542 -2.0116,-0.6189 -1.3032,1.0585 -2.043,2.0473 -0.3518,0.4701 -0.8662,0.2031 -1.0459,0.8287 -0.3194,1.1113 -0.7002,0.7751 -1.6782,0.5362 -1.8139,-1.8176 -3.2135,-0.9165 -5.3022,-0.2681 -1.2713,0.3947 -0.2675,0.5138 -0.2675,1.243 0,0.4948 -1.3227,1.1352 -1.6539,1.633 -0.8533,1.2828 -1.6249,1.8806 -2.943,0.5606 -0.7993,-0.8004 -0.4614,-0.2417 -1.3863,-0.1706 -0.7457,0.0574 -1.3447,-0.9192 -1.8971,-0.0731 -0.4164,0.6376 -0.4076,1.9631 -0.1216,2.6079 0.4685,1.0566 0.7359,1.7278 -0.5108,2.413 -0.7625,1.0685 -1.0065,1.8523 -2.2619,1.8523 -1.6295,0 -1.0029,1.1117 -2.0431,1.8524 -0.8328,0.5929 -1.289,0.3562 -1.289,1.5111 0,0.7123 0.2334,1.8984 -0.2433,2.4861 -0.6212,0.7656 0.955,2.0361 -0.7053,2.4616 -1.6796,0.4305 -2.5538,-1.4717 -2.5538,1.5843 0,1.0552 -0.2291,1.285 0.4748,2.1083l0 0z" stroke-miterlimit="10" stroke="#FFFFFF"/>
        <path name='静海区' fill="#D3D3D3" d="M42.5894 196.798l1.1928 0.0343c0.581,0.4189 0.3584,0.404 0.0973,0.9627 -0.1074,0.23 -0.3669,0.9484 0.073,1.0115 0.0361,0.0729 0.9525,0.0122 1.1066,0.0122 0.7781,0 1.779,-0.039 2.4808,0.2925 0.5378,0.2539 0.2142,1.0809 0.9364,0.9505 1.9634,-0.3544 2.9274,1.1781 3.8793,2.6811 0.6786,0.9884 1.4961,1.2853 2.6511,1.4502 0.7598,0.1085 1.6171,0.4787 2.3227,0.7799 0.8848,0.3776 2.3354,0.4211 2.9186,1.2674 0.1221,0.1771 0.1537,1.156 0.2311,1.4624 0.1633,0.6466 -0.2297,1.3415 0.1094,1.9255 0.8942,0.9735 1.861,1.2639 2.7241,0.1462 0.5915,-0.7661 1.3923,0.2887 1.9822,0.6581 1.1986,0.7504 2.6817,1.6588 4.0131,2.1448 1.9233,0.7022 2.2649,1.4597 3.3442,3.0832 0.4305,1.3299 1.7759,2.4996 2.4565,3.7413l2.5781 4.704c0.5874,1.0228 1.5489,1.6792 2.2619,2.5835l1.739 2.2058c0.7162,0.9084 1.1658,2.0948 2.189,2.7907 1.1591,0.7885 2.4177,1.2805 3.4658,2.2423l0 0 -2.8701 3.2904c-0.9554,0.5979 -1.4549,2.7022 -2.8214,1.438 -1.0066,-0.9311 -1.9917,0.356 -1.7025,0.975 0.5089,1.0889 0.479,0.8041 -0.2919,1.7792 -0.6885,0.8708 1.6238,1.4952 1.9458,1.7549 0.7447,0.6009 -2.4121,2.7498 -2.8457,3.0953 -1.6632,1.3256 -3.8888,0.7806 -4.6698,2.3886 -0.322,0.6628 -2.2922,1.3536 -2.2619,1.6818 0.0877,0.9502 2.0876,2.112 2.8213,2.6566 0.852,0.7586 0.9259,1.9466 0.6324,3.0954 -0.216,0.8457 -0.2992,2.0731 -1.362,2.3398 0,0.5215 0.0231,2.5541 0.4134,2.7054 1.7101,0.6627 0.3143,1.3605 0.5838,2.1449 0.3407,0.9912 1.3094,4.2972 -0.4135,4.8746 0,0.0701 0.0243,0.1098 0.0243,0.1706 0.3209,0.0805 0.242,0.648 0.1946,0.9018l-0.0832 1.3348 0 0c-2.1666,1.2877 -3.4212,4.0752 -5.6565,4.9413 -1.0643,0.4123 -2.2421,-1.0996 -2.3713,-2.0352 -0.5476,-1.2052 -1.207,-1.103 -2.2011,-1.7183 -0.9367,-0.5799 -1.2717,-1.6445 -1.5931,-2.6566 -0.2607,-0.8208 -0.7467,-1.2356 -1.3256,-1.8158 -0.7668,-0.7683 -1.4197,-1.1367 -1.1188,-2.413l1.4715 -3.4731c0.4168,-0.984 0.5757,-1.3527 -0.5351,-1.5112 -0.8356,-0.1193 -1.2544,-0.45 -1.8971,-0.9627 -0.8241,-0.6573 -0.9485,-1.7625 -0.9485,-2.7176 -0.3933,-0.0987 -3.1601,1.1948 -3.0767,1.4136 0.6491,1.7008 -1.394,2.196 -1.8971,0.8775 -0.3987,-1.0447 -0.3804,-0.1972 -1.2161,-0.3169 -0.9942,0.4109 -2.0099,0.3866 -3.0645,0.4265 -0.9896,0.0375 -0.0309,1.4123 -1.0337,1.4502 -0.5041,0.0191 -0.8888,-0.271 -1.0458,-0.7433 -0.2934,-0.8821 -0.5733,-0.5565 -1.2404,0.0974 -0.6511,0.6384 -0.3384,1.4701 -1.5931,0.39 -0.2418,-0.2081 -2.4939,0.798 -3.2105,0.719 -1.9823,-0.2185 -2.1525,-1.9535 -2.1525,-3.5463 0,-0.9138 -0.8591,-1.7764 -0.8269,-2.3885 -0.355,-2.0102 0.9171,-4.3562 -1.8971,-4.2409l-7.1384 0.2924c-0.6354,0.026 -0.7087,0.6185 -1.2404,0.8165 -2.0125,0.7493 -2.0966,-0.9079 -3.5023,-1.3892l-1.644 -0.1434c0.2625,-1.0156 0.4831,-2.0438 0.6816,-3.0999l-0.5578 -0.303c-1.2535,-0.8402 0.2007,-1.8144 0.2554,-2.7786 0.0215,-0.3788 -0.2534,-0.2862 -0.4864,-0.3412 -0.3898,-0.0922 -0.3617,-0.981 -0.3162,-1.2552 0.1051,-0.6337 0.4996,-1.1886 0.7053,-1.7914 0.3199,-0.3606 0.377,-0.9329 0.377,-1.4015 0,-0.3577 -0.6497,-0.0838 -0.7661,-0.4143 -0.3478,-0.9877 1.0676,-1.7654 0.9121,-2.6201 -0.1132,-0.6218 -0.4516,-0.8461 -0.4257,-1.5599 0.0285,-0.7829 0.513,-1.6818 -0.5472,-1.6818 -1.8375,0 -1.6098,-1.3305 -1.7633,-2.6932 0.2161,-0.8718 0.4591,-2.7448 0.3161,-3.6438 -0.164,-1.0316 -0.7917,-0.799 -1.5201,-0.9993 -0.527,-0.145 -0.535,-1.2562 -0.535,-1.6817 0,-1.0736 0.0892,-2.2332 0.2553,-3.2904 0,-0.6847 -0.0766,-1.0351 0.8027,-0.8287 0.7878,0.185 0.8445,-0.3074 0.9971,-0.914 0.281,-1.1173 -0.2396,-2.4041 0.3284,-3.4487l1.0337 -1.9011c0.4354,-0.8008 1.5378,-1.6912 1.6903,-2.5227 1.7088,-2.6437 0.4784,-4.79 1.0459,-7.5191 0.1979,-0.9522 0.6805,-0.5971 1.4471,-0.5971 1.6683,0 1.1757,-1.388 2.2254,-1.8036 0.7321,-0.2899 0.9418,0.2418 0.8756,0.8287 -0.0442,0.3926 -0.918,1.205 -0.2918,1.3527 0.6521,0.1539 1.6843,-0.0975 2.3835,-0.0975 1.785,0 4.7989,0.2688 5.9345,-1.2674 0.5346,-0.6185 1.1827,-1.2072 1.3985,-2.0474 0.1597,-0.6217 0.7367,-0.7428 1.2769,-0.914 0.5983,-0.1895 1.5092,-1.0365 2.1757,-1.8744l0 0z" stroke-miterlimit="10" stroke="#FFFFFF"/>
        <path name='滨海新区' fill="#D3D3D3" d="M143.903 192.932c-0.1239,-0.1086 -0.2087,-0.1668 -0.3527,-0.2559 -0.1309,-0.0811 -0.2109,-0.1828 -0.377,-0.1828 -0.1487,0 -0.0348,0.2566 -0.0121,0.3168 0.0356,0.0939 0.0767,0.1133 0.1459,0.1828 0.1237,0.124 0.1288,0.261 0.304,0.3047 0.1966,0.0491 0.4291,0.01 0.5959,-0.1097l-0.304 -0.2559zm1.435 -3.9119c-0.0145,-0.0773 -0.0118,-0.1721 -0.0365,-0.2437 -0.0138,-0.0398 -0.0763,-0.0828 -0.0851,-0.1097 -0.054,0 -0.079,-0.0062 -0.1338,0 -0.073,0.0082 -0.2222,0.1644 -0.2554,0.2315 -0.0173,0.0348 -0.0236,0.1653 -0.0121,0.2072 0.018,0.066 0.0486,0.1278 0.0486,0.195 0,0.1141 -0.0021,0.2829 0.1338,0.3046 0.2228,0.0357 0.2986,-0.1536 0.4256,-0.2802l-0.0851 -0.3047zm-0.1824 1.9864c-0.1273,-0.2963 -0.1796,-0.6927 -0.2433,-1.0115l-0.0121 -0.0122c-0.1407,0 -0.3364,0.2287 -0.45,0.3047 -0.3017,0.2016 -0.8999,0.3581 -0.8999,0.8287 0,0.3021 0.2464,0.5293 0.45,0.719 0.2574,0.2397 0.3441,0.9719 0.7053,0.9993 0.6896,0.0522 0.4357,-0.7366 0.5229,-1.2065l-0.0729 -0.6215zm2.043 24.5437c-0.5047,0.1084 -2.5044,-0.8701 -2.5538,-0.0487 -0.0404,0.671 0.3463,1.4172 0.9485,1.7792 0.7971,0.4793 1.192,0.1219 2.0066,0.1219 0.5283,0 1.0995,-0.0796 1.6295,-0.1219 0.2718,-0.0217 0.649,-0.1613 0.8635,-0.3168 0.3355,-0.2434 -0.7587,-0.8475 -0.9486,-0.8897 -0.5732,-0.1276 -1.1716,-0.3221 -1.739,-0.5118l-0.2067 -0.0122zm-72.5622 55.0044l0.0832 -1.3348c0.0474,-0.2538 0.1263,-0.8213 -0.1946,-0.9018 0,-0.0608 -0.0243,-0.1005 -0.0243,-0.1706 1.7229,-0.5774 0.7542,-3.8834 0.4135,-4.8746 -0.2695,-0.7844 1.1263,-1.4822 -0.5838,-2.1449 -0.3903,-0.1513 -0.4134,-2.1839 -0.4134,-2.7054 1.0628,-0.2667 1.146,-1.4941 1.362,-2.3398 0.2935,-1.1488 0.2196,-2.3368 -0.6324,-3.0954 -0.7337,-0.5446 -2.7336,-1.7064 -2.8213,-2.6566 -0.0303,-0.3282 1.9399,-1.019 2.2619,-1.6818 0.781,-1.608 3.0066,-1.063 4.6698,-2.3886 0.4336,-0.3455 3.5904,-2.4944 2.8457,-3.0953 -0.322,-0.2597 -2.6343,-0.8841 -1.9458,-1.7549 0.7709,-0.9751 0.8008,-0.6903 0.2919,-1.7792 -0.2892,-0.619 0.6959,-1.9061 1.7025,-0.975 1.3665,1.2642 1.866,-0.8401 2.8214,-1.438l2.8701 -3.2904 0 0c0.7251,-0.1868 2.4552,0.6548 3.259,0.8531 0.9725,0.2398 2.2498,0.8346 3.0646,1.4136 0.6576,0.4672 0.9375,0.7805 1.7268,1.0481 0.3971,0.1347 1.291,0.3476 1.581,-0.1219 0.3714,-0.6011 -1.0621,-1.075 -0.8756,-1.6817 0.2167,-0.7045 1.2575,-1.1202 1.6539,-1.7549l0 0c1.146,-0.7546 2.2366,-2.0237 3.1618,-3.0222 0.6593,-0.7114 4.3082,-3.6223 4.8644,-2.2911 0.4167,0.9971 1.2658,2.7264 2.2133,3.3147 1.3238,0.822 1.0004,-0.7405 1.3134,-1.6817 0.8092,-2.4326 1.9839,-3.0877 3.9158,-4.4603 2.1889,-1.5553 3.1154,-0.8568 3.7456,-4.0216 0.2992,-0.9497 -0.4232,-2.0685 -0.1459,-2.9004 1.0364,0 1.3926,0.4906 2.0673,-0.5849 1.0828,-1.7258 2.3384,0.8476 3.624,1.1699 1.4595,0.366 0.251,-1.9593 0.1216,-2.8029 -0.1198,-0.7806 -0.0066,-1.8859 0.3648,-2.5348 0.4172,-0.7287 0.7946,-1.4916 1.1188,-2.2667 0.385,-0.9207 -1.1061,-0.6272 -1.7268,-1.0968l-2.5781 -1.9499 0 0c0.0844,-0.8042 0.2433,-2.0009 -0.0973,-2.7297 -1.0645,-2.278 0.2871,-2.0732 0.8512,-3.8997 0.2409,-0.7798 0.5352,-1.1532 1.1675,-0.8044 0.5204,0.2872 1.4607,-0.189 1.9701,-0.3168 0.1617,-0.6523 -0.1811,-1.2209 0.1702,-1.8524 0.3384,-0.6081 0.681,-1.3748 0.681,-2.0717 -1.0597,-0.266 -1.3377,0.1955 -1.3377,-1.2186 0,-0.6335 0.1845,-1.8768 -0.681,-1.8768 -0.542,0 -1.2827,0.4668 -1.4593,-0.2437 -0.3139,-1.2631 -3.3035,-0.5274 -4.2807,-0.8531 0,-0.9503 0.9,-2.1083 0.9,-3.3391 0.1521,-0.9662 0.088,-2.0777 0.608,-2.9004 0.5515,-0.8723 1.0304,-0.2187 1.7269,0.2925 0.7053,0.5178 2.5953,1.7548 2.8943,0.195 0.0973,-0.5075 -0.4712,-1.0911 0.0243,-1.633 0.3569,-0.3902 1.0136,-0.5779 1.4836,-0.8774l1.4105 -0.5606 0 0c0.8145,0 1.7398,0.1677 2.5295,0.3656 0.863,0.2164 1.5761,0.6849 2.4686,0.7677 0.1933,0.0179 1.1553,0.0354 1.1553,-0.2681 -0.0347,0.0001 -0.0227,0.017 -0.0365,0.0488 0.1186,-0.2722 0.0595,-0.5984 0.1703,-0.8896 0.0955,-0.2513 0.2569,-0.4674 0.2918,-0.7312 0.076,-0.5754 -0.7783,-1.0395 -0.7783,-1.7915 0,-1.4473 0.3255,-2.4171 1.8242,-2.681 0.598,-0.1053 1.2714,-1.3365 1.6782,-0.6459 0.5438,0.9234 1.1516,1.687 1.6174,2.6201 0.2674,0 0.5872,0.9575 1.2525,0.8896 0.42,-0.0429 0.9773,-0.1639 1.3742,0 0.4516,0.1866 0.212,2.0325 0.3284,2.4983 1.3577,0.3422 2.9435,-0.0975 4.3292,-0.0975 0.4063,0 0.1751,-0.4335 0.1095,-0.6946 -0.1323,-0.5261 -0.1879,-1.2615 -0.2554,-1.8037 -0.279,-2.502 1.6107,-5.4691 3.0645,-7.3363 0.2302,-0.2958 -0.9728,-0.9622 -1.1796,-1.1699 0.0268,-0.0133 0.0118,0.0094 0.0243,0.0366 -0.1324,-0.3668 -0.8381,-0.8214 -1.1188,-1.1455 -0.3149,-0.3638 -0.603,-0.8082 -0.8391,-1.2309 -0.4655,-0.8336 -0.8248,-1.8714 -1.1796,-2.7663 -0.3467,-0.8747 -0.3914,-0.5776 0.6689,-0.78 0.7034,-0.1343 1.5201,-0.4413 1.5201,-1.2064 1.3234,0 2.6178,-0.1432 3.9523,-0.4875 0.7408,-0.1549 3.4402,-1.8097 3.6239,-0.5971 0.3072,2.0279 0.9941,1.5041 2.3592,2.6079 0.7902,0.6388 0.2649,1.2895 1.508,1.8401 1.1473,0.5082 1.4962,0.0791 2.0673,-0.8774 0.6388,-1.0696 1.5853,-2.5364 1.8363,-3.7656 0.1655,-0.8109 -2.9475,-2.5671 -1.0458,-3.8144l0.7534 -0.7192 0 0c0.0584,0.0438 0.1394,0.1918 0.1581,0.2681 0.0222,0.0055 0.0188,0.002 0.0243,0.0243 0.7218,0.1804 2.2251,-0.7105 3.1254,-0.7433 0.6964,-0.0254 1.2727,-0.0859 1.8849,0.2924 0.5824,0.3598 0.9069,1.2041 1.5201,1.5721 1.5111,0.9462 2.9014,0.9111 4.621,1.0602l3.0889 0.2681c0.5748,0.0498 0.4045,0.9729 0.4621,1.4258 0.1668,1.3118 1.2796,1.7629 2.2497,2.4373 1.6817,1.1689 1.6389,0.1188 3.0889,-0.4266 0.7624,-0.1905 1.5796,-0.4742 1.7268,0.6825 0.1481,1.1632 0.2715,3.1436 1.3255,3.8874 0.5977,0.4217 1.2485,0.5905 1.9579,0.7678 0.7712,0.1927 0.8093,0.5599 0.6445,1.3283 -0.105,0.8687 -0.2447,1.614 -0.0744,2.4658l-3.0752 0.0446 -0.0114 0.7725 0 0c-0.7606,0.07 -1.5434,0.104 -1.8485,-0.0896 -1.2886,0.3221 -2.9019,0.0377 -4.1712,0.5606l-3.0767 1.2674c-0.5908,0.2434 -1.7497,0.7089 -2.347,0.6458l-5.1319 1.6209c-1.4777,0.4667 -3.028,1.6697 -4.5117,1.9864 -3.0232,1.7601 -5.3238,3.4951 -7.406,6.276 -0.3842,0.513 -1.2251,1.8787 -1.739,2.1571 -0.8835,1.1804 -4.8155,6.4571 -6.3115,3.7169 -0.2045,-0.3745 -0.5054,-1.8334 -0.1824,-2.1571 -0.1087,-1.8756 0.146,-3.7672 0.146,-5.5936 -0.5249,0.1053 -1.1344,1.5672 -1.4472,1.9864 -0.2475,0.3319 -0.6127,0.6966 -0.7783,1.0724 -0.3907,0.7079 -0.8636,1.2674 -1.7511,1.2674 0,0.2219 0.4252,0.511 0.4864,0.7922 0.0727,0.3344 -0.219,0.7504 -0.1703,1.1455 0.0922,0.7465 1.1896,1.3232 1.8485,1.5721 0.6351,0.24 0.7193,0.0509 0.8756,0.8043 0.1338,0.6445 0.2958,1.32 0.231,2.0108 0.1576,0.6315 0.5782,1.5231 1.1188,1.9132 0.2794,0.2015 0.5289,0.5514 0.5959,0.9019 0.1739,0.9103 -0.1054,2.0125 -0.0608,2.9491 0.0496,1.0434 0.9274,0.5856 0.9729,0.7678 -0.266,0.0872 -1.3442,1.3049 -1.4715,1.5964 -0.5637,0.9696 -1.9534,3.7112 -0.5594,4.4481 1.1933,0.6307 2.9099,1.3037 3.6483,2.5104 0.2437,0.6634 0.4681,1.5889 0.5715,2.2667 0.0717,0.4696 0.1592,1.9129 -0.4499,1.0359 -0.1722,-0.2479 -0.5377,-0.5259 -0.7418,-0.78 -0.4095,-0.5095 -1.042,-0.3848 -1.5809,-0.5606l-2.6876 -0.8774c-0.8535,-0.2785 -1.8098,-0.9749 -2.7605,-0.9749 0.2355,0.7065 1.1035,1.3602 1.5201,1.9864 0.5919,0.8898 0.7859,2.1016 0.5229,3.0954 -0.1991,0.7526 -0.8209,1.5837 -1.1188,2.3642 -0.4587,0.4587 -0.2987,1.0416 -0.7783,1.5233 -0.5582,0.5608 -1.0097,0.8394 -1.7511,1.0724 -1.0607,0.3335 -2.1763,2.3032 -2.6389,3.2782 -0.1277,0.2691 -0.0396,0.7078 -0.2189,0.9262 -0.0356,0.0433 -0.7269,0.1145 -0.8635,0.1706 -0.4241,0.1745 -0.7025,1.0459 -0.7783,1.4502 -0.3367,1.0148 -1.5622,2.3998 -2.2011,3.266l-1.6539 2.2423 -0.8512 1.2187 0 0.0243c0.1563,0 0.5229,0.4211 0.5229,0.585 0,0.1993 -0.4433,0.2103 -0.5837,0.2681 -0.7492,0.3084 -0.9089,0.6211 -1.4472,1.1821 -0.4358,0.877 -0.9499,0.7887 -0.6202,1.8645 0.1003,0.3276 0.6534,0.829 0.9486,0.9018 -0.007,0.0211 -0.0122,0.0061 -0.0122,0.0366 -0.8077,0.2036 -1.1751,0.2643 -1.435,1.1455l-0.7296 2.4739c-0.2013,0.6827 -0.6433,1.1322 -1.0094,1.7305 -0.0465,0.567 -0.1478,1.1113 -0.3405,1.633 -0.1908,0.5163 -0.0729,0.5433 -0.0729,1.0237 0,0.7874 -0.305,1.3749 0.6445,1.5111 0.005,0.0203 0.0082,0.0312 0.0243,0.0366 0,0.8812 -0.8262,0.2613 -1.289,0.6824 -0.6446,0.5864 -0.1095,1.3997 -0.1095,2.023l-0.0121 0.0122c-0.0224,0.0055 -0.0188,0.002 -0.0244,0.0243 -1.1962,0.1716 -0.7433,1.496 -0.9972,2.4861 -0.0708,1.3659 -0.028,2.264 -0.7053,3.4488 -0.5182,0.9063 -1.5527,1.0683 -2.4443,1.3771 -0.108,0.0374 -0.7297,0.1941 -0.7297,0.2315 0.6727,0.2242 1.522,0.1826 2.2133,0.4509 0.6352,0.2466 0.4858,1.8739 0.4866,2.4373l-0.0243 3.9241 -0.0243 3.8509 -0.0487 0 0 0c-0.5422,-0.2705 -1.2217,-0.2682 -1.7148,0.1097 -0.6012,0.4608 -0.1735,1.1419 -0.4986,1.7305 -0.183,0.3313 -0.6667,0.6041 -1.0459,0.4144 -0.5526,-0.2766 -0.608,-0.4833 -0.608,-1.0725 0,-1.31 -1.122,-0.6045 -1.8849,-0.5118 -1.0706,0 -2.3505,-1.6 -3.3686,-0.4143 -1.5226,1.7734 -2.0555,0.7089 -3.8063,1.4624 -1.1751,0.5058 -1.7742,0.381 -2.9065,0.5971 -0.3332,0.0636 -0.9448,0.9213 -1.2161,1.1821 -1.0948,1.0529 0.5719,1.7548 -0.8877,2.6688 -0.4799,0.3006 -1.6312,0.9143 -2.2011,0.8653 -2.9199,0.9007 -1.4891,-0.6224 -1.9458,-2.4495 -2.1434,0 -1.5728,0.9263 -2.0916,2.486 -0.4767,1.4334 -1.7673,2.3492 -3.0889,1.17 -1.0058,-0.8973 -1.3253,0.2089 -2.0795,0.7555 -1.2505,0.9065 -1.0716,-2.0735 -1.6904,-1.9133 -0.3777,0.0977 -1.3276,0.9743 -1.7146,1.2431 -0.6929,0.4815 -1.4585,0.5281 -2.2741,0.4752 -0.4924,-0.032 -1.8478,-0.8766 -1.7877,-1.3892 -0.5452,-1.2507 -0.4238,-2.6614 0,-3.8875 0.2397,-0.6934 1.17,-1.2171 1.435,-1.9864 0.2775,-0.8052 0.0408,-1.1041 -0.3527,-1.7549l-2.6753 -1.8524c-1.0909,-0.7553 -0.4462,-1.1583 -0.3284,-2.0839 0.0679,-0.5335 -1.2711,-0.4015 -1.5323,-0.3168 -0.7232,0.2345 -1.0659,1.0644 -1.4836,1.6086 -0.6997,0.7601 -1.096,2.3976 -2.1524,2.2667 -1.4157,-0.1754 -2.7471,-0.0868 -4.0739,0.4387 -0.2456,0.0973 -0.4797,0.2145 -0.7037,0.3477l0 0z" stroke-miterlimit="10" stroke="#FFFFFF"/>
        <path name='武清区' fill="#D3D3D3" d="M45.4464 189.38l1.4241 -0.8353c0.4742,-0.3259 0.2199,-0.7438 0.5478,-1.0724 0.2273,-0.2277 0.6324,-0.5916 0.6324,-0.9384 0,-0.2145 -0.515,-0.446 -0.6202,-0.7068 -0.2588,-0.6419 0.0178,-1.2069 0.6567,-1.3893 0.6982,-0.1992 0.9684,-0.4743 1.5201,-0.9261l0 0c-0.7039,-0.8233 -0.4748,-1.0531 -0.4748,-2.1083 0,-3.056 0.8742,-1.1538 2.5538,-1.5843 1.6603,-0.4255 0.0841,-1.696 0.7053,-2.4616 0.4767,-0.5877 0.2433,-1.7738 0.2433,-2.4861 0,-1.1549 0.4562,-0.9182 1.289,-1.5111 1.0402,-0.7407 0.4136,-1.8524 2.0431,-1.8524 1.2554,0 1.4994,-0.7838 2.2619,-1.8523 1.2467,-0.6852 0.9793,-1.3564 0.5108,-2.413 -0.286,-0.6448 -0.2948,-1.9703 0.1216,-2.6079 0.5524,-0.8461 1.1514,0.1305 1.8971,0.0731 0.9249,-0.0711 0.587,-0.6298 1.3863,0.1706 1.3181,1.32 2.0897,0.7222 2.943,-0.5606 0.3312,-0.4978 1.6539,-1.1382 1.6539,-1.633 0,-0.7292 -1.0038,-0.8483 0.2675,-1.243 2.0887,-0.6484 3.4883,-1.5495 5.3022,0.2681 0.978,0.2389 1.3588,0.5751 1.6782,-0.5362 0.1797,-0.6256 0.6941,-0.3586 1.0459,-0.8287 0.7398,-0.9888 0.0314,-2.6662 2.043,-2.0473 2.215,0.6816 2.0798,-2.115 3.3564,-2.7542 0.8197,-0.4105 0.8929,-0.8853 1.8971,-1.1943 0.9076,-0.2792 1.9364,0.1294 2.8457,-0.0974 0.4539,-0.1242 0.955,-0.2502 1.3864,-0.0732 0.7513,0.3082 0.7426,0.8236 1.7268,0.6337 0.5505,-0.1062 2.8519,0.2289 3.2835,0.5119 0.5284,0.3466 0.9071,0.5504 1.1918,1.1211 0.3128,0.6273 0.79,1.1593 1.4593,1.438l1.0945 0.8044 0 0c-0.0745,-0.4717 -0.0505,-0.9151 0.1702,-1.3162 0.096,-0.1746 0.1879,-0.3362 0.2676,-0.5362 0.1269,-0.3182 0.1619,-0.6567 0.2675,-0.9749l0.2675 -0.9993 0 0c-0.6334,-0.424 -1.3367,-0.7625 -1.9214,-1.243 -0.6227,-0.5116 -1.3123,-1.5804 -1.2647,-2.413 0.0779,-0.9421 1.1188,-1.3255 1.1188,-2.2911 -0.7835,-0.2604 -0.9253,-1.4089 0.2675,-1.1455 0.5459,0.1206 2.0185,1.4045 2.3592,0.8531 0.387,-0.6266 0.411,-4.4696 -0.0243,-4.8747 -1.3372,-1.2441 -0.7053,-1.2423 -0.7053,-2.681 -1.4327,-0.4802 -2.6027,-2.8316 -3.4537,-3.9484 -1.0543,-1.3838 1.7222,-4.172 -1.0945,-4.6309 -0.9253,-0.2475 -2.4322,-0.0661 -2.4322,-1.2674 0,-0.6662 0.2602,-1.5347 -0.0487,-2.0961 -0.2213,-0.4024 -0.9912,-0.7981 -0.9485,-1.2187 0.0672,-0.6605 1.3443,-0.7312 1.8241,-0.7312 0.1955,-0.5833 -2.0088,-1.7415 -2.4565,-2.2423 -0.9344,-1.0453 -2.5599,1.1886 -2.6754,-1.1212 -0.0502,-1.0039 -0.2331,-1.5575 -1.1188,-2.0473l-9.7961 -8.5415 0 0c-0.0982,-0.0102 -0.2081,-0.0721 -0.3337,-0.2084 -0.2208,-0.2395 -0.5944,-0.3586 -0.9242,-0.4022 -0.9293,-0.1231 -1.7291,-0.4811 -2.6025,-0.8287l-1.6538 -0.6581c-0.6335,-0.2521 -1.767,-0.5615 -2.2619,-0.9871 -0.3419,0.0221 -1.9349,-0.9134 -2.3471,-1.109 -1.4064,-0.6673 -3.0198,-0.7577 -4.463,-1.377 -0.5339,-0.229 -0.8952,-0.8272 -1.5201,-0.5606 -0.8029,0.3427 -1.5922,0.8216 -2.4444,1.0846 0.0916,-0.0153 0.073,-0.0548 0.073,0.0244 -0.5774,0 -1.4825,0.4863 -2.0673,0.6337 0,-0.0569 0.0972,-0.1452 0.0972,-0.2681 0,-0.1937 -0.3137,-0.6846 -0.5107,-0.7312 -0.543,-0.1283 -1.0671,0.3866 -1.6053,0.1462 -0.6557,-0.293 -0.4985,-1.4859 -0.4985,-2.023 0,-0.5954 0.3459,-1.0648 -0.0487,-1.5842 -0.7407,-0.9751 -1.1452,-1.7729 -0.7418,-2.9857 0.2619,-0.7877 1.0174,-1.3116 1.1918,-2.1449 0.1271,-0.6078 -0.6369,-0.4529 -1.058,-0.5727 -0.7549,-0.2147 -2.4795,-0.8181 -3.1011,-0.195 -0.8188,0.821 -0.4385,2.2667 -2.0795,2.2667l-0.7783 0.1097 0 0 -0.0729 1.633c-0.0441,0.6604 0.263,1.0525 -0.5229,1.3892 -0.4289,0.1838 -1.1262,0.1768 -1.5931,0.0975 -0.9607,-0.1631 -1.5171,-0.5336 -1.8728,0.7434 -0.1578,0.5664 -0.9476,0.6922 -1.4106,0.8287 -0.8783,0.2591 -0.0592,1.0204 -0.4257,1.7549 -0.4134,0.8287 -1.8732,0.9541 -2.0187,1.9864 -0.1241,0.8798 0.3597,2.8579 -0.912,3.071 0.0246,0.0124 0.0227,-0.0029 0.0486,-0.0122l-1.131 0.4753 0 0c0.0216,0.6706 0.6614,1.5917 0.4622,2.2179 -0.3536,1.1119 -2.9584,-0.3519 -2.8943,1.2796 0.0217,0.5528 0.7458,1.2955 0.8634,1.9133 0.0782,0.4104 -0.2339,0.8091 -0.4135,1.1577l-0.7661 1.4868c-0.1596,1.2804 0.0326,1.7964 0.3891,3.0466 0.6033,2.1159 2.8168,0.3692 3.2835,1.694 0.1531,0.4349 -0.0068,1.6749 -0.1824,2.096 -0.3271,0.784 -1.5044,1.6242 -2.0552,2.3033 -1.0224,1.5589 3.4129,2.5523 1.0823,3.595 -1.2763,0.5711 -2.4713,0.885 -3.6483,1.6574 -0.7801,0.5118 0.1258,0.7659 0.5838,1.2674 0.2689,0.2943 -0.6863,3.8459 1.216,2.157 1.579,-1.402 2.7183,1.35 3.8915,1.7427 0.5149,0.1627 0.7735,0.2864 1.2526,-0.0853 0.508,-0.394 1.6555,-1.3169 2.3349,-0.8774 1.3842,0.8953 0.6271,1.5869 -0.2554,2.5226 -0.4277,0.4534 -0.8605,1.0092 -1.2283,1.5111 -0.4005,0.5467 -1.0891,1.1794 -1.2647,1.8402 -0.2904,1.0195 0.286,2.2833 0.4135,3.3147 0.2354,1.9028 -1.878,2.0814 -1.9336,3.4976 -0.019,0.4845 0.8144,1.2456 0.4135,1.5598 -0.6354,0.4978 -1.035,0.6763 -0.6324,1.5843 0.0918,0.4607 0.9974,1.6076 1.5444,1.4989 0.8571,-0.1702 1.4701,-0.7667 2.0674,-1.3649 0.3099,-0.3105 1.2032,-0.6562 1.5323,-0.1827 0.579,0.8333 -0.7273,1.6928 0.7661,2.352 0.945,0.4172 0.8645,3.5284 0.5715,4.3993 -0.4249,1.2626 -0.9376,0.7555 -2.0187,1.1699 -1.2787,0.49 0.123,1.351 0.6811,1.6939 0.1196,0.3506 0.4557,0.644 0.608,1.0846 0.5659,1.6377 -0.1824,3.2849 -0.1824,4.9356 0,0.7473 -0.1721,1.6478 0.7296,1.828 0.9043,0.1808 1.1717,0.5942 0.8878,1.5233 -0.1063,1.2045 -1.1194,0.0318 -1.7025,0.3778 -0.8345,0.495 -2.4799,2.2501 -2.3836,3.2294 0.1785,1.8155 0.6914,3.7707 0.377,5.618 -0.2893,0.7812 -1.4404,3.0047 0.377,2.8029 2.1966,-0.244 3.7309,-0.116 5.4481,1.4259 0.4758,0.4271 0.7571,1.027 0.898,1.6883l0 0z" stroke-miterlimit="10" stroke="#FFFFFF"/>
        <path name='宁河区' fill="#D3D3D3" d="M95.3199 158.688c1.6369,0.9292 0.7428,0.1712 1.3377,1.8279 0.3633,1.0115 1.0284,0.6204 1.5809,1.2431 0.4519,0.5095 0.7371,0.7354 1.0702,1.3649 0.3225,0.6092 0.9986,0.7207 1.3863,1.1942 0.6927,0.8458 1.0788,1.9504 2.3836,1.0481 1.7984,-1.2435 2.8962,1.362 1.7511,2.5104 -1.6508,1.6554 -0.0729,2.6475 -0.0729,4.4603l0 0c0.2274,0.0683 0.3839,0.1219 0.608,0.1219 0.0118,0.0352 0.0561,0.04 0.0973,0.0731 0,0.6427 0.1789,3.5073 1.4837,2.023 0.9816,-1.1168 1.4685,-0.5759 2.6997,-1.0481 0.5655,-0.2168 1.5006,-1.3562 2.0187,-0.6581 0.7333,0.9883 1.8079,1.1272 2.8943,1.5843 0.5823,0.2449 0.4109,0.7271 0.2676,1.1943 -0.2006,0.6535 0.4414,0.3537 0.6567,0.7312 0.3583,0.051 0.1957,1.3136 0.3648,1.633 0.7251,1.3701 1.533,-0.2957 1.9944,-0.0975 0.6235,2.5045 4.9363,1.6312 5.6184,2.8273 0.5252,0.0747 0.9687,1.507 1.362,1.9011l1.0213 1.243 0 0c0.8145,0 1.7398,0.1677 2.5295,0.3656 0.863,0.2164 1.5761,0.6849 2.4686,0.7677 0.1933,0.0179 1.1553,0.0354 1.1553,-0.2681 -0.0347,0.0001 -0.0227,0.017 -0.0365,0.0488 0.1186,-0.2722 0.0595,-0.5984 0.1703,-0.8896 0.0955,-0.2513 0.2569,-0.4674 0.2918,-0.7312 0.076,-0.5754 -0.7783,-1.0395 -0.7783,-1.7915 0,-1.4473 0.3255,-2.4171 1.8242,-2.681 0.598,-0.1053 1.2714,-1.3365 1.6782,-0.6459 0.5438,0.9234 1.1516,1.687 1.6174,2.6201 0.2674,0 0.5872,0.9575 1.2525,0.8896 0.42,-0.0429 0.9773,-0.1639 1.3742,0 0.4516,0.1866 0.212,2.0325 0.3284,2.4983 1.3577,0.3422 2.9435,-0.0975 4.3292,-0.0975 0.4063,0 0.1751,-0.4335 0.1095,-0.6946 -0.1323,-0.5261 -0.1879,-1.2615 -0.2554,-1.8037 -0.279,-2.502 1.6107,-5.4691 3.0645,-7.3363 0.2302,-0.2958 -0.9728,-0.9622 -1.1796,-1.1699 0.0268,-0.0133 0.0118,0.0094 0.0243,0.0366 -0.1324,-0.3668 -0.8381,-0.8214 -1.1188,-1.1455 -0.3149,-0.3638 -0.603,-0.8082 -0.8391,-1.2309 -0.4655,-0.8336 -0.8248,-1.8714 -1.1796,-2.7663 -0.3467,-0.8747 -0.3914,-0.5776 0.6689,-0.78 0.7034,-0.1343 1.5201,-0.4413 1.5201,-1.2064 1.3234,0 2.6178,-0.1432 3.9523,-0.4875 0.7408,-0.1549 3.4402,-1.8097 3.6239,-0.5971 0.3072,2.0279 0.9941,1.5041 2.3592,2.6079 0.7902,0.6388 0.2649,1.2895 1.508,1.8401 1.1473,0.5082 1.4962,0.0791 2.0673,-0.8774 0.6388,-1.0696 1.5853,-2.5364 1.8363,-3.7656 0.1655,-0.8109 -2.9475,-2.5671 -1.0458,-3.8144l0.7534 -0.7192 0 0c0,-1.749 -0.0841,-3.0726 0.8634,-4.6187 0.1313,-0.2142 0.9513,-1.0143 0.9121,-1.1698 -0.3424,-0.0859 -1.4738,-0.8336 -1.6782,-0.8043 -0.2658,1.0723 -0.1123,2.0745 -1.4593,2.1082l-1.9021 0.4523c-0.8434,-0.0334 -1.8231,-0.0359 -2.4145,-0.769 -0.5993,-0.7429 -0.188,-1.3329 -0.0365,-2.1327 0.0255,-0.1349 0.0222,-0.252 -0.0036,-0.3603l0.9035 -0.3952c1.1203,0 2.3561,-0.3816 3.3443,-0.8775 0.9159,-0.4597 1.1911,0.1917 1.7633,0.9018 0.3141,0.3899 0.6912,-0.2066 1.0094,-0.3656 0.3096,-0.1548 -0.627,-1.3016 -0.8027,-1.5355 -0.6906,-0.9195 0.45,-1.8022 0.45,-2.8273 0,-0.5668 0.3056,-1.2905 -0.1459,-1.7426 -0.159,-0.1592 -1.1256,-0.5916 -0.8512,-0.95l0 0c0.0632,-0.0827 0.1928,-0.1615 0.4134,-0.2321 0.8655,-0.2768 1.6777,-0.0063 2.5537,-0.0853l-0.2553 -4.5944c0,-1.2033 0.1666,-3.4013 1.4471,-3.985 0.2454,-0.4909 1.4581,-0.3801 1.8363,-0.6215 0.4897,-0.9815 0.2591,-2.9102 0.2311,-4.0215 0,-1.1274 -0.1017,-1.2187 0.9728,-1.2187 0.9122,0 0.8513,-0.3855 0.8513,-1.1699 0,-1.6785 -0.7499,-2.7193 0.0851,-4.3262 0.4536,-0.8731 1.1152,-1.9782 1.3742,-2.9126 0.4357,-0.4644 1.6388,-2.4484 0.9972,-3.1442 -0.1893,-0.2054 -2.4059,-1.0675 -2.7727,-1.1699 -0.7918,-0.221 -1.681,-0.0792 -2.5051,-0.1706 -1.1034,-0.1225 -1.5198,-0.915 -2.0917,-1.7183 -0.7327,-0.147 -1.1629,-0.1999 -1.362,0.5484 -0.1684,0.6332 -0.8161,1.1094 -1.3255,1.4502 -0.0437,-0.0219 -0.7053,0.1614 -0.7905,0.1706 -0.8603,0 -1.7038,0.0828 -2.4808,-0.3412 -0.4877,-0.266 -0.9523,-0.7453 -1.4228,-1.048 -1.1457,-0.7369 -2.3195,-0.2751 -3.2835,0.4265 -0.4591,0.334 -0.4081,0.9169 -1.1188,0.7556 -0.9143,-0.2076 -1.3296,-0.638 -2.2193,-0.0793l-1.0823 0.7739 0.4681 0.8409 0.4586 0.8179 -0.4221 0.0717c-0.5804,0.1785 -0.881,0.2565 -1.3741,0.6215 -0.4633,0.3431 -0.6812,0.824 -0.7175,1.3893 -0.0174,0.2711 -0.073,0.55 -0.073,0.8165 0,0.2346 0.2529,0.6967 0.4864,0.7555 -0.0374,0.0047 -0.0437,-0.0127 -0.0729,-0.0365l1.2975 1.4833 -1.8061 1.4688 -1.8655 1.1593c-0.0404,0.026 -0.0817,0.0508 -0.1234,0.0747 -0.1397,-0.1565 -0.4851,-0.2194 -0.7738,-0.6155 -0.2124,-0.2914 -0.304,-0.6126 -0.304,-1.0358 0,-0.6092 0.1249,-1.3889 -0.2189,-1.9377 -0.0442,-0.0706 -0.5286,-0.3508 -1.0728,-0.6953l0 0c-0.466,0.4679 -1.8139,1.2627 -2.4657,1.4631 -0.7811,0.2403 -1.29,0.778 -1.9214,1.243 -1.0337,0.7611 -2.7655,0.1482 -3.7943,-0.2437 -0.4949,-0.1886 -0.514,1.6266 -0.6567,1.9498 -0.6244,1.4145 -1.7824,1.1247 -2.9429,1.4136 0,3.2463 -0.1319,4.3764 -3.4537,3.8997 -0.0881,-0.3512 -1.4515,-0.9481 -1.7269,-1.3161 -0.5597,-0.7482 -0.4672,-0.3065 -1.2404,-0.0488 -0.6069,0.2022 0.314,2.437 0.754,2.5836 0,0.5039 -0.0824,0.7899 -0.3892,1.243 -1.2153,0.8863 -2.5831,1.4137 -4.0374,1.4137 -1.3644,0 -1.2299,0.3669 -1.5323,1.5842 -0.655,0.1644 -1.1427,-0.3405 -1.2891,-0.9262 -0.4824,-0.1201 -0.9605,0.3204 -1.0945,0.8044 -0.1408,0.5081 -0.8948,0.9785 -0.9485,1.1942 -0.1742,0.0437 0.0464,0.7873 0.073,0.9262 0.0722,0.3769 0.1216,0.7502 0.1216,1.1455 0,0.6561 -0.0541,1.9467 0.1702,2.5349 0.4628,1.2138 2.4791,1.7074 1.0459,3.1441 -0.5644,0.5659 1.0615,1.5355 1.5322,1.5355l0.0244 0.0244c0,2.1255 -2.7654,0.3138 -2.7241,1.7305 -0.5192,1.1443 -0.7722,2.1627 -1.9214,2.7541 -0.4886,0.2515 -1.6576,-0.1477 -2.4809,0.1219 -0.4052,0.1326 -1.0777,-0.3412 -1.5322,-0.3412 -0.6495,0 -0.3649,1.6666 -0.5108,2.0229 -0.4355,1.0638 -2.2768,-0.6293 -2.7727,-0.8774 -1.5526,-0.777 -2.9924,-0.9471 -4.6455,-0.8531 -0.7561,0.043 -1.7224,-0.355 -2.3592,-0.1706 -1.187,0.3439 -1.6759,0.9251 -2.7971,1.4868l0 0 -0.2675 0.9993c-0.1056,0.3182 -0.1406,0.6567 -0.2675,0.9749 -0.0797,0.2 -0.1716,0.3616 -0.2676,0.5362 -0.2207,0.4011 -0.2447,0.8445 -0.1702,1.3162l0 0z" stroke-miterlimit="10" stroke="#FFFFFF"/>
        <path name='宝坻区' fill="#D3D3D3" d="M73.9222 113.221l9.7961 8.5415c0.8857,0.4898 1.0686,1.0434 1.1188,2.0473 0.1155,2.3098 1.741,0.0759 2.6754,1.1212 0.4477,0.5008 2.652,1.659 2.4565,2.2423 -0.4798,0 -1.7569,0.0707 -1.8241,0.7312 -0.0427,0.4206 0.7272,0.8163 0.9485,1.2187 0.3089,0.5614 0.0487,1.4299 0.0487,2.0961 0,1.2013 1.5069,1.0199 2.4322,1.2674 2.8167,0.4589 0.0402,3.2471 1.0945,4.6309 0.851,1.1168 2.021,3.4682 3.4537,3.9484 0,1.4387 -0.6319,1.4369 0.7053,2.681 0.4353,0.4051 0.4113,4.2481 0.0243,4.8747 -0.3407,0.5514 -1.8133,-0.7325 -2.3592,-0.8531 -1.1928,-0.2634 -1.051,0.8851 -0.2675,1.1455 0,0.9656 -1.0409,1.349 -1.1188,2.2911 -0.0476,0.8326 0.642,1.9014 1.2647,2.413 0.5847,0.4805 1.288,0.819 1.9214,1.243l0 0c1.1212,-0.5617 1.6101,-1.1429 2.7971,-1.4868 0.6368,-0.1844 1.6031,0.2136 2.3592,0.1706 1.6531,-0.094 3.0929,0.0761 4.6455,0.8531 0.4959,0.2481 2.3372,1.9412 2.7727,0.8774 0.1459,-0.3563 -0.1387,-2.0229 0.5108,-2.0229 0.4545,0 1.127,0.4738 1.5322,0.3412 0.8233,-0.2696 1.9923,0.1296 2.4809,-0.1219 1.1492,-0.5914 1.4022,-1.6098 1.9214,-2.7541 -0.0413,-1.4167 2.7241,0.395 2.7241,-1.7305l-0.0244 -0.0244c-0.4707,0 -2.0966,-0.9696 -1.5322,-1.5355 1.4332,-1.4367 -0.5831,-1.9303 -1.0459,-3.1441 -0.2243,-0.5882 -0.1702,-1.8788 -0.1702,-2.5349 0,-0.3953 -0.0494,-0.7686 -0.1216,-1.1455 -0.0266,-0.1389 -0.2472,-0.8825 -0.073,-0.9262 0.0537,-0.2157 0.8077,-0.6861 0.9485,-1.1942 0.134,-0.484 0.6121,-0.9245 1.0945,-0.8044 0.1464,0.5857 0.6341,1.0906 1.2891,0.9262 0.3024,-1.2173 0.1679,-1.5842 1.5323,-1.5842 1.4543,0 2.8221,-0.5274 4.0374,-1.4137 0.3068,-0.4531 0.3892,-0.7391 0.3892,-1.243 -0.44,-0.1466 -1.3609,-2.3814 -0.754,-2.5836 0.7732,-0.2577 0.6807,-0.6994 1.2404,0.0488 0.2754,0.368 1.6388,0.9649 1.7269,1.3161 3.3218,0.4767 3.4537,-0.6534 3.4537,-3.8997 1.1605,-0.2889 2.3185,0.0009 2.9429,-1.4136 0.1427,-0.3232 0.1618,-2.1384 0.6567,-1.9498 1.0288,0.3919 2.7606,1.0048 3.7943,0.2437 0.6314,-0.465 1.1403,-1.0027 1.9214,-1.243 0.6518,-0.2004 1.9997,-0.9952 2.4657,-1.4631l0 0c-1.1146,-0.7054 -2.4808,-1.6811 -0.8365,-1.6811 0.3349,0 3.0549,1.1963 1.8971,-0.2681 -0.5815,-0.7355 -2.4395,-3.0938 -3.3807,-3.1197 -1.096,-0.0302 -0.6803,1.3646 -1.3134,1.8158 -0.6308,0.4495 -2.2862,0.3986 -2.2862,-0.6094 0,-0.5589 0.305,-1.6939 -0.5594,-1.6939 -0.7626,0 -1.1002,0.2457 -0.8513,-0.7434 0.2163,-0.8594 -0.3553,-0.9029 -0.7661,-0.3534 -0.9436,1.2622 -2.3969,-0.0016 -0.6689,-0.7677 0.4207,-0.1865 0.3093,-0.8656 0.5838,-1.1212 0.5002,-0.4659 1.1787,0.2881 1.3498,-0.914 0.0709,-0.4983 -0.4997,-1.4849 0.1459,-1.7549 0.2363,-0.0989 0.6899,0.2852 1.0945,0.1707 0.7742,-0.2192 -0.771,-1.1769 0.0487,-1.6209 0.6705,-0.3632 0.9666,1.0237 1.5809,-0.4996 0.323,-0.8009 0.0243,-1.6649 0.0243,-2.5226 0,-0.3382 0.0174,-1.1998 -0.4013,-1.3284 -0.9011,-0.2769 -1.0158,-0.8717 -0.9121,-1.7914 0.1281,-1.1358 -1.7843,-0.4767 -1.435,-2.0839 0.35,-1.6105 -0.0467,-1.1335 -1.1552,-1.0115 -1.032,0.1136 -0.7351,-0.9993 -1.5931,-0.9993 -0.732,0 -3.5124,0.5073 -3.7091,-0.524 -0.2129,-1.1166 0.0004,-1.5694 -1.1188,-2.2423 -0.8226,-0.4946 0.1398,-0.9699 0.2311,-1.499 0.1191,-0.6898 0.3051,-0.8689 0.9242,-0.463 1.0985,0.7202 0.0487,-1.0569 0.0487,-1.2796 0,-1.1857 -1.0506,-0.5197 -1.7877,-1.0846 -0.7217,-0.5531 -1.4574,-1.0954 -2.3106,-1.4259 -0.644,-0.2495 -1.245,-0.2681 -1.9882,-0.2695l0 0c-0.329,-0.1727 -0.966,-0.2904 -1.2709,-0.5104 -0.2122,-0.1531 -0.3669,-0.3764 -0.5837,-0.524 -0.5742,-0.3912 -1.0522,-0.3376 -1.7025,-0.2072 -1.3153,0 -1.4233,-0.175 -2.3592,-0.9262 -0.2796,-0.2243 -1.8763,-1.0509 -2.1403,-0.9383 -1.3779,0.5875 -2.8412,0.8647 -4.0617,1.8645 -0.7382,0.6046 -1.4162,1.7766 -2.3836,1.5599 -0.5771,-0.1293 -1.0479,-0.4759 -1.5444,-0.7556 -0.4262,-0.1937 -0.8034,-0.7917 -0.9607,-1.2308 -0.1567,-0.4371 -0.8901,-0.1128 -1.2769,-0.3291 -0.9489,-0.5309 -0.2276,-1.6198 -1.5688,-2.1326 -0.5333,-0.2038 -1.4683,-0.3165 -1.8849,-0.5972 -0.2279,-0.1536 -0.4252,-0.4712 -0.7418,-0.4021 -0.4408,0.0961 -0.7929,0.163 -1.2161,-0.0244 -0.5526,-0.2448 -0.8519,-0.4278 -1.4593,-0.524 -0.9245,0.0842 -1.7211,0.8239 -2.4686,0.0731 -0.4424,-0.4445 -0.095,-1.6353 -0.6081,-1.7183 -0.6089,-0.0986 -0.7628,-0.1537 -1.2647,0.195 -0.7116,0.4942 -0.9376,-0.2867 -1.1067,-0.7556 -0.2938,-0.8148 -1.1639,-0.1209 -1.289,-0.9993 -0.1811,-1.2705 -1.7796,-1.1001 -1.9214,-1.7305l-1.058 -0.6093 0 0c-0.3091,0.0776 -0.9411,-0.3178 -1.3134,-0.3656 -1.1316,-0.1456 -1.4404,0.4156 -2.3835,0.719 -1.2828,0.4128 -1.5368,-1.2492 -2.7849,-1.1821 -1.0691,0.0574 -0.504,2.4549 -1.362,2.9126 -0.4099,0.3949 -1.3382,0.3618 -1.8606,0.2072 -0.3117,-0.0923 -1.0855,-0.4265 -1.3498,-0.4265 -0.2088,0.3457 -0.134,1.6818 -0.073,2.096 0.1717,1.1662 1.5124,1.0744 1.9336,2.1814 0.1167,0.307 0.1554,1.2265 0.3283,1.4137 0.352,0.381 1.3414,0.4765 1.8606,0.7799 0.604,0.2458 0.828,0.4161 0.9121,1.0724 0.0337,0.2626 0.1465,0.8053 -0.0365,1.0115 -0.3835,0.4318 -0.8799,0.7232 -1.3863,1.0359 -0.5721,0.3534 -1.688,1.0047 -1.9093,1.6695 -0.2235,0.197 -0.2014,0.6605 -0.4621,0.78 -0.28,0.1285 -0.4751,0.211 -0.7905,0.195 -0.4028,-0.0204 -0.6249,-0.0804 -0.9607,0.2193 -0.2987,0.2665 -0.4347,0.8205 -0.5594,1.1943l-0.2305 0.6812 0.0601 0.0261 2.5803 1.0301 -0.3912 5.0871 -0.1459 5.033c0.2171,0.2695 0.3744,0.4591 0.681,0.6215 0.5839,0.3091 0.2576,0.5742 0.2311,1.1578 -0.0493,1.0872 -1.3708,0.2209 -1.9093,0.7311 -0.3148,0.2984 -0.0944,0.7261 -0.4134,1.0846 -0.41,0.461 -1.0829,0.6362 -1.435,1.0603 -0.2127,0.2809 -0.405,0.7144 -0.7,0.6837l0 0z" stroke-miterlimit="10" stroke="#FFFFFF"/>
        <path name='蓟州区' fill="#D3D3D3" d="M87.7924 80.5112l1.058 0.6093c0.1418,0.6304 1.7403,0.46 1.9214,1.7305 0.1251,0.8784 0.9952,0.1845 1.289,0.9993 0.1691,0.4689 0.3951,1.2498 1.1067,0.7556 0.5019,-0.3487 0.6558,-0.2936 1.2647,-0.195 0.5131,0.083 0.1657,1.2738 0.6081,1.7183 0.7475,0.7508 1.5441,0.0111 2.4686,-0.0731 0.6074,0.0962 0.9067,0.2792 1.4593,0.524 0.4232,0.1874 0.7753,0.1205 1.2161,0.0244 0.3166,-0.0691 0.5139,0.2485 0.7418,0.4021 0.4166,0.2807 1.3516,0.3934 1.8849,0.5972 1.3412,0.5128 0.6199,1.6017 1.5688,2.1326 0.3868,0.2163 1.1202,-0.108 1.2769,0.3291 0.1573,0.4391 0.5345,1.0371 0.9607,1.2308 0.4965,0.2797 0.9673,0.6263 1.5444,0.7556 0.9674,0.2167 1.6454,-0.9553 2.3836,-1.5599 1.2205,-0.9998 2.6838,-1.277 4.0617,-1.8645 0.264,-0.1126 1.8607,0.714 2.1403,0.9383 0.9359,0.7512 1.0439,0.9262 2.3592,0.9262 0.6503,-0.1304 1.1283,-0.184 1.7025,0.2072 0.2168,0.1476 0.3715,0.3709 0.5837,0.524 0.3049,0.22 0.9419,0.3377 1.2709,0.5104l0 0 1.5626 -3.9105c0.1522,-0.4042 0.5059,-0.7354 0.6081,-1.1333 0.0963,-0.3754 -0.3715,-0.6287 -0.4257,-1.0359 -0.0418,-0.3136 0.1216,-0.6041 0.1216,-0.9018 0,-0.5351 -0.4227,-0.8141 -0.5229,-1.2917 -0.4239,-1.1165 -0.963,-2.3152 -1.289,-3.4488 -0.1669,-0.5801 -0.735,-1.6368 -0.5959,-2.2302 -0.2635,-1.0029 -0.514,-1.4589 -1.1553,-2.2301 -0.4276,-0.5142 -0.7674,-1.1517 -0.8026,-1.8402 -0.032,-0.6271 0.024,-3.0814 -0.3284,-3.5219 -0.5291,-0.1065 -0.9244,0.0137 -1.1917,-0.5728 -0.0729,-0.8734 -0.1556,-1.7335 0.0973,-2.5957 0.2191,-0.7473 0.7194,-0.1906 1.3985,-0.4387 0.2298,-0.084 -0.0122,-0.9222 -0.0122,-1.1334 0,-0.8599 -0.08,-0.6832 -0.8269,-1.0968 -0.6503,-0.36 -0.1923,-1.4643 0.0973,-1.9254 0.0816,-0.1301 0.6858,-0.8062 0.7539,-0.78 0.9368,-0.7028 1.5371,-0.7692 1.5809,-1.9742 0.033,-0.9066 0.1394,-1.2798 1.1188,-1.3771 1.8824,-0.1869 -0.5932,-2.5653 1.0824,-2.9004 2.2355,-0.447 6.9195,0.9805 6.9195,3.7047 0,1.2606 -0.0157,1.0686 1.3134,0.6947 1.0078,-0.2836 2.0607,-0.8446 3.1131,-0.78 1.3639,-0.4037 2.4858,0.1335 3.7334,-0.1218 0.9251,-0.1892 1.5119,-1.1246 2.3106,-1.5234 1.0962,-0.5475 3.2228,-0.5695 4.1712,0.2925 0.764,0.6943 1.3678,1.6299 2.2376,2.1449 0.3851,0.2279 0.957,0.2807 1.2404,0.658l0.1337 0.0366c0.4612,0.2636 1.0303,0.2733 1.2769,-0.2559 0.1607,-0.3447 -0.0115,-0.4999 0.3162,-0.8287 0.5904,-0.5922 1.1084,0.8099 1.6174,0.9018 0.3933,0.0709 0.6815,-0.641 0.7175,-0.9384 0.0949,-0.7845 0.4308,-1.6762 0.6688,-2.4373 0.3772,-1.2229 0.7362,-2.5502 0.6324,-3.8509 -0.0693,-0.8695 -0.9427,-2.3485 -1.812,-2.5958 -1.0647,-0.3028 -1.5153,0.778 -2.2619,1.1821l-0.5351 1.0115 -0.9037 -0.1313 -0.9853 -0.1566 -0.0931 -0.2816 -0.1903 -0.9744 -0.126 -0.6375 0.0477 -0.919 0.2073 -0.5222 0.3653 -0.3622 0.1337 -0.7558c0.2015,-0.8041 0.56,-1.123 1.2891,-1.4989 0.6705,-0.3458 1.4765,-0.2724 2.0795,-0.7556 0.7807,-0.6255 0.7996,-2.4319 -0.3527,-2.6688 -0.307,-0.1645 -1.1573,-0.6327 -1.2161,-0.9871 -0.0696,-0.4188 0.6037,-0.9824 0.1095,-1.1943 -0.2363,-0.1014 -0.582,-0.3605 -0.827,-0.3534 -0.6765,0.0197 -1.095,0.5944 -1.8241,0.4509 -0.736,-0.1448 -1.1964,-0.3539 -1.7633,-0.8409 -1.4141,-0.5157 -0.0793,-1.3162 -2.0674,-1.3162 -0.3219,0 -0.5675,-0.3168 -0.8269,-0.3168 -0.4966,0 -1.6552,2.8262 -2.6754,0.9384 -0.3159,-0.5844 -0.74,-1.7806 -1.5201,-1.3893 -1.0891,0.5462 -2.1926,0.8402 -1.7147,-0.9018 0.1204,-0.4388 0.8391,-0.7121 0.8391,-1.0968 0,-0.6064 -0.2918,-1.0763 -0.2918,-1.767 0,-1.1599 -0.3363,-0.9274 -1.2526,-1.3649 -1.0238,-0.4889 -1.1378,-1.0623 -1.6053,-1.9986 -0.4426,-0.8883 -2.4372,-3.4522 -3.478,-3.5707 -0.51,-0.0581 -0.9942,0.1236 -1.4957,-0.0244 -1.3304,-0.3929 -2.2251,-4.1102 -2.2012,-5.3255 -0.2274,-0.5944 -0.4418,-1.1704 -0.4013,-1.8158 0.0274,-0.4379 0.3054,-0.657 0.4743,-1.0359 0.3197,-0.7176 -1.3619,-1.1027 -1.7633,-1.1942 -2.334,-0.5321 -4.5582,-0.1828 -6.8952,0.0853 -1.9193,0.3333 -2.9751,0.306 -4.7428,-0.5484 -1.1593,-0.5604 -2.1246,-1.1715 -3.478,-1.2065 -1.7004,-0.0441 -5.6574,0.3335 -5.7156,2.7176l0 0 -0.1216 0.78c-0.419,1.0204 -0.6179,2.0869 -0.0243,3.0953 0.625,1.0619 1.3313,1.1662 2.2254,1.8036l0.0122 0.0366c-0.1308,1.0471 -2.3068,1.3771 -3.1253,1.3771 -1.1325,0 -3.0168,-0.4861 -2.5538,1.4746 0.0695,1.482 -2.9736,1.3146 -1.9579,3.2416 0.7616,1.4447 -2.5355,1.322 -3.0889,0.4387 -0.5292,-0.8449 -1.6455,-0.1483 -2.1281,0.4631 -0.6548,0.8294 -0.5199,2.742 -1.7998,2.742 -0.6341,0.1451 -1.2283,0.062 -1.2283,0.8896 0,0.2041 -0.0614,1.4268 -0.1338,1.4989 -0.1829,-0.1383 -1.0112,-0.2559 -1.2525,-0.2559 -0.334,0 -0.9535,-0.7099 -1.2404,-0.9018 -0.9003,-0.602 -2.5512,0.5771 -2.7605,1.5111 -0.1135,0.5063 -0.3908,1.3756 -0.9486,1.5477 -0.773,0.2384 -1.7271,-0.4998 -1.9822,0.7434l0.0365 0.6946 0 0c0.2297,0.3986 0.5966,0.6084 0.681,1.0968 0.0599,0.3471 0.5314,1.4957 0.2189,1.7305 -0.3876,0.2911 -0.9288,0.1402 -1.362,0.2194 -0.6834,0.1251 -1.3386,0.0252 -1.8607,0.5484 -0.6359,0.6374 -0.2188,1.7756 -0.2188,2.5348 0.04,1.3836 0.633,2.7908 0.5593,4.2043l-0.1216 2.3277c-0.0547,1.0496 0.2433,2.0966 0.2433,3.1319 -0.2953,0.4506 -0.1985,1.0805 -0.5716,1.6208 -0.5972,0.8651 -1.6523,1.3378 -2.2862,2.1692 -0.5822,0.7634 -0.8211,1.2801 -1.0824,2.218 -0.461,1.6551 -0.5949,1.2163 -1.8241,1.9133 -0.4786,0.2714 0.1216,0.7726 0.1216,1.1577 0,0.4698 -0.8292,0.625 -1.1066,0.9384 -1.0494,0.0478 0.1127,1.3422 0.4621,1.5355 0.331,0.183 1.1527,0.3966 0.8756,0.9383 -0.8253,1.6135 0.8593,1.55 0.3648,2.9492 -0.3437,0.9723 -0.5206,1.8215 0.8634,1.767 0.2792,-0.011 2.0833,-0.1255 1.1675,0.4509 -0.4322,0.2721 -0.2213,1.166 0.3405,0.9262 1.0188,-0.4347 0.6614,1.1694 1.4958,0.7068 0.8537,-0.4732 1.8623,0.6054 2.5416,0.8531 0.8323,0.4889 1.6828,1.4158 2.7605,1.0968 0.4658,-0.1379 1.2548,-1.5805 1.6903,-1.2065 0.848,0.7285 0.9905,1.4277 0.9,2.4251 -0.0658,0.7246 0.1459,1.3967 0.1459,2.1083l0 0z" stroke-miterlimit="10" stroke="#FFFFFF"/>
    </g>
</svg>