<svg xmlns="http://www.w3.org/2000/svg" xmlns:xlink="http://www.w3.org/1999/xlink" contentScriptType="text/ecmascript" zoomAndPan="magnify" contentStyleType="text/css" id="图层_1" mapName="湖北省" mapType="省市地图" enable-background="new 0 0 1000 1000" version="1.1" xml:space="preserve" preserveAspectRatio="xMidYMid meet" viewBox="0 -60 400 400" x="0px" y="0px">
    <path name="十堰市" fill="#D3D3D3" d="M62.114,6.561C62.114,6.561,63.726,3.894,73.431,7.084C73.431,7.084,79.249,6.351999999999999,83.253,7.18C87.257,8.008,85.709,9.977,89.114,10.062999999999999C92.518,10.150999999999998,92.631,7.933999999999999,92.631,7.933999999999999L96.592,8.934999999999999C96.592,8.934999999999999,99.04899999999999,4.350999999999999,100.444,4.511999999999999C101.84100000000001,4.671999999999999,102.111,9.532999999999998,102.111,9.532999999999998S104.60300000000001,9.043999999999997,105.792,11.663999999999998C105.792,11.663999999999998,110.169,7.7719999999999985,111.952,7.240999999999998C113.735,6.708999999999998,116.591,6.770999999999998,116.591,6.770999999999998L118.079,4.933999999999998C118.079,4.933999999999998,119.94,6.574999999999998,120.095,8.124999999999998L122.744,7.995999999999999L125.285,10.818999999999999C125.285,10.818999999999999,126.50999999999999,12.985,125.053,14.187999999999999C123.596,15.390999999999998,127.77199999999999,16.079,127.77199999999999,16.079S130.261,17.516000000000002,127.76499999999999,20.979L128.755,22.066C128.755,22.066,131.597,21.313,131.302,24.781C131.302,24.781,134.772,24.258,135.879,28.278C135.879,28.278,138.44799999999998,26.645999999999997,138.911,27.448999999999998C139.374,28.250999999999998,138.084,30.354,138.084,30.354L140.338,35.083C140.338,35.083,141.21599999999998,37.833999999999996,144.789,36.352C144.789,36.352,142.785,45.524,136.77599999999998,47.247C130.76799999999997,48.971,130.95399999999998,49.681,129.18699999999998,53.969C127.42099999999998,58.259,128.416,58.699,128.416,58.699L122.234,62.766999999999996C122.234,62.766999999999996,120.62299999999999,64.645,123.17599999999999,65.591C125.731,66.53699999999999,125.088,69.666,121.75499999999998,69.19C118.42199999999998,68.714,118.59899999999998,70.3,118.59899999999998,71.606C118.59899999999998,72.91199999999999,119.72699999999998,76.097,119.72699999999998,76.097S111.08099999999997,74.407,110.58399999999997,76.335C110.58399999999997,76.335,110.04199999999997,77.622,117.52899999999997,86.285C119.75799999999997,88.865,115.69399999999997,93.764,113.91299999999997,93.682C112.43099999999997,93.613,110.68499999999997,91.639,110.05899999999997,91.113C109.42099999999996,90.578,109.24999999999997,93.915,105.80899999999997,93.885C102.16899999999997,93.852,98.72999999999998,93.02000000000001,97.37799999999997,98.494C96.86399999999998,100.574,94.70599999999997,97.554,91.73199999999997,97.895C90.85399999999997,97.99499999999999,89.25299999999997,98.65899999999999,84.56599999999997,102.473C83.31499999999997,103.492,84.59099999999998,102.04899999999999,83.91599999999997,99.765C83.83899999999997,99.503,81.81999999999996,98.027,80.04499999999997,96.562C79.05099999999997,95.743,78.50299999999997,94.68299999999999,77.52299999999997,94.437C73.91799999999996,93.529,76.99399999999997,92.50699999999999,76.76399999999997,92.569C75.63699999999997,92.86800000000001,75.50799999999997,91.563,75.50799999999997,91.563S74.07299999999996,92.736,72.05799999999996,89.07300000000001L69.69499999999996,89.69200000000001C69.69499999999996,89.69200000000001,65.84999999999997,93.135,65.91099999999996,87.685C65.97299999999996,82.23400000000001,65.61099999999996,82.72800000000001,65.61099999999996,82.72800000000001S55.75699999999996,82.80300000000001,62.182999999999964,77.67600000000002C62.182999999999964,77.67600000000002,60.188999999999965,75.54300000000002,59.974999999999966,73.92600000000002C59.76099999999997,72.31000000000002,61.46199999999997,72.24400000000001,61.71799999999997,70.66900000000001C61.97399999999997,69.09500000000001,59.97299999999997,69.35300000000001,59.92699999999997,65.68200000000002C59.88199999999997,62.01000000000002,60.013999999999974,61.27900000000002,60.013999999999974,61.27900000000002S60.14599999999997,59.320000000000014,61.98199999999997,58.88800000000002C63.81999999999997,58.45800000000002,56.562999999999974,57.27000000000002,56.51999999999997,54.53400000000002C56.474999999999966,51.79700000000002,56.82699999999997,48.04400000000002,60.02799999999997,48.002000000000024L60.33499999999997,45.14000000000002L58.275999999999975,41.15500000000002L60.64399999999998,41.00900000000002C60.64399999999998,41.00900000000002,63.35599999999998,37.67400000000002,66.10699999999997,40.86100000000002C66.10699999999997,40.86100000000002,69.13999999999997,40.57400000000002,70.96599999999997,39.682000000000016C72.79099999999997,38.79000000000001,74.78999999999996,38.87600000000002,76.32999999999997,39.78500000000002C77.87199999999997,40.69600000000002,80.09299999999998,42.182000000000016,82.14799999999997,38.79100000000002C82.14799999999997,38.79100000000002,83.71899999999997,37.22900000000002,86.53299999999997,37.59200000000002C89.34599999999998,37.95600000000002,85.34799999999997,34.80500000000002,85.34799999999997,34.80500000000002S87.28999999999996,27.923000000000023,75.94699999999997,23.41200000000002L70.50999999999998,23.393000000000022C70.50999999999998,23.393000000000022,66.82999999999997,23.708000000000023,70.13999999999997,17.22700000000002C70.13999999999997,17.22700000000002,70.27099999999997,14.438000000000022,66.39399999999998,13.657000000000021C66.39399999999998,13.657000000000021,66.45099999999998,12.224000000000022,65.73599999999998,11.961000000000022C65.02099999999997,11.699000000000021,59.397999999999975,11.887000000000022,59.397999999999975,11.887000000000022S53.120999999999974,9.334000000000021,58.84999999999997,6.4740000000000215L62.114,6.561L62.114,6.561Z" stroke-miterlimit="10" stroke="#FFFFFF"></path>
    <path name="襄阳市" fill="#D3D3D3" d="M144.665,36.38C144.665,36.38,142.974,43.672000000000004,139.69299999999998,45.737C136.41299999999998,47.803000000000004,133.85099999999997,47.527,131.87199999999999,49.162C129.89299999999997,50.797,127.88399999999999,56.175,128.159,58.524C128.159,58.524,121.24499999999999,62.272,121.56099999999999,63.788000000000004C121.877,65.303,125.401,65.83500000000001,124.699,67.882C123.995,69.929,120.042,68.373,118.972,69.85600000000001C117.90299999999999,71.33600000000001,119.338,75.24600000000001,119.794,76.07700000000001C119.794,76.07700000000001,111.898,74.68,110.633,76.293C110.633,76.293,109.14699999999999,76.56500000000001,116.86399999999999,85.039C116.86399999999999,85.039,117.567,86.356,117.95199999999998,87.987C117.95199999999998,87.987,119.95999999999998,88.868,120.30399999999999,89.91799999999999C120.64799999999998,90.96799999999999,120.53599999999999,96.05399999999999,122.41199999999999,96.898C124.288,97.74199999999999,127.297,94.441,128.554,94.49199999999999C129.812,94.541,132.758,98.82199999999999,133.727,99.252C134.696,99.67999999999999,137.424,99.601,137.424,99.601S138.645,102.584,140.804,102.611C142.962,102.638,146.951,98.875,148.901,99.28800000000001C150.85000000000002,99.70000000000002,151.252,100.53900000000002,151.68800000000002,102.54C152.126,104.543,154.937,105.83200000000001,156.586,105.57700000000001C158.234,105.32000000000001,158.82600000000002,99.83500000000001,158.82600000000002,99.83500000000001S156.73300000000003,92.319,164.55,94.77900000000001C164.55,94.77900000000001,166.786,95.13600000000001,168.621,92.715C170.45600000000002,90.293,170.216,89.59,172.92600000000002,89.76100000000001C175.63400000000001,89.93400000000001,180.65500000000003,89.87700000000001,183.28300000000002,88.91400000000002C185.91000000000003,87.95000000000002,187.264,91.43000000000002,189.46,91.25300000000001C191.656,91.07700000000001,191.697,86.29800000000002,191.993,85.13900000000001C192.289,83.98,192.182,80.71600000000001,192.182,80.71600000000001S192.242,76.77900000000001,197.911,74.50000000000001C203.577,72.22100000000002,201.58,67.06900000000002,202.231,65.20500000000001C202.88899999999998,63.34000000000001,205.6,58.08600000000001,202.53,54.00500000000001C202.53,54.00500000000001,202.535,51.68400000000001,204.38400000000001,49.13800000000001C206.23600000000002,46.59000000000001,205.25000000000003,44.298000000000016,205.25000000000003,44.298000000000016S201.25800000000004,45.78200000000002,197.58600000000004,46.33300000000001C193.91300000000004,46.88600000000001,194.92100000000005,48.421000000000014,192.80800000000005,48.57700000000001C190.69600000000005,48.73300000000001,190.47200000000004,46.31600000000001,188.51200000000006,46.176000000000016C186.55100000000004,46.03500000000002,186.65500000000006,47.91800000000001,185.36700000000005,47.771000000000015C184.08100000000005,47.62300000000001,183.72600000000006,46.314000000000014,182.71800000000005,46.314000000000014C181.71000000000004,46.314000000000014,179.79700000000005,48.91300000000001,179.79700000000005,48.91300000000001L173.14600000000004,49.27000000000001L168.27700000000004,45.53100000000001L166.20500000000004,47.243000000000016L163.02700000000004,43.83700000000002L160.44000000000005,45.371000000000016C160.44000000000005,45.371000000000016,159.07900000000006,42.558000000000014,158.17000000000004,42.381000000000014S153.08800000000005,41.95800000000001,150.45500000000004,39.51100000000002C147.822,37.063,149.119,34.255,144.665,36.38L144.665,36.38Z" stroke-miterlimit="10" stroke="#FFFFFF"></path>
    <path name="随州市" fill="#D3D3D3" d="M205.411,45.907C205.411,45.907,208.944,46.153999999999996,211.336,44.983C211.336,44.983,214.103,46.433,216.466,49.845C216.466,49.845,218.26600000000002,51.439,220.258,49.786C222.25,48.132000000000005,225.072,50.61,225.072,50.61S228.867,42.763,232.1,43.824C235.33599999999998,44.885,233.46,52.653,233.46,52.653S235.26500000000001,54.221,235.25400000000002,55.327C235.24300000000002,56.434,232.80800000000002,57.333999999999996,232.98800000000003,58.988C233.17100000000002,60.641,235.06700000000004,60.516,235.35300000000004,61.73C235.63900000000004,62.943999999999996,234.99600000000004,64.782,234.99600000000004,64.782S237.87100000000004,66.13199999999999,238.62900000000005,69.698C239.38900000000004,73.26499999999999,241.58400000000006,70.288,241.88200000000006,69.716C242.18100000000007,69.146,243.47200000000007,70.154,243.54100000000005,71.511C243.61000000000004,72.868,241.87600000000006,75.93299999999999,243.77600000000007,76.347C245.67300000000006,76.75999999999999,249.15500000000006,71.396,249.15500000000006,71.396L248.81600000000006,89.386C248.81600000000006,89.386,245.16600000000005,92.607,243.56300000000005,92.589C241.96100000000004,92.571,242.61300000000006,91.422,240.51900000000003,91.076C238.43000000000004,90.72999999999999,238.95300000000003,92.243,237.69600000000003,92.04199999999999C236.43800000000002,91.841,236.64800000000002,91.03199999999998,234.711,90.87999999999998C232.77200000000002,90.72999999999998,232.086,94.75699999999998,231.17600000000002,94.67799999999998C230.26500000000001,94.59799999999998,228.704,93.00099999999998,228.704,93.00099999999998S227.466,95.95499999999997,223.982,92.58799999999998C220.5,89.22099999999998,217.137,94.87399999999998,217.018,97.72099999999998C217.018,97.72099999999998,210.922,93.42999999999998,209.814,93.11199999999998S202.85399999999998,92.45399999999998,202.85399999999998,92.45399999999998L193.446,84.45299999999997L192.23,83.96099999999997C192.23,83.96099999999997,191.463,77.63999999999997,194.58499999999998,76.04699999999997C197.70799999999997,74.45499999999997,202.606,72.78699999999996,201.789,66.55099999999997C201.789,66.55099999999997,203.393,61.54799999999997,203.897,59.54599999999997C204.39999999999998,57.54599999999997,202.733,54.09399999999997,202.733,54.09399999999997C202.733,54.09399999999997,201.761,52.467999999999975,203.675,50.107999999999976C205.592,47.749,205.411,45.907,205.411,45.907L205.411,45.907Z" stroke-miterlimit="10" stroke="#FFFFFF"></path>
    <path name="恩施土家族苗族自治州" fill="#D3D3D3" d="M12.006,143.51L15.64,143.688C15.64,143.688,19.192,145.557,20.221,142.547C20.221,142.547,19.783,139.303,20.12,139.221C20.457,139.145,22.961000000000002,142.541,24.188000000000002,143.428C24.188000000000002,143.428,25.512000000000004,143.668,25.751,142.893L30.211000000000002,142.991L35.322,136.167L37.688,136.50300000000001C37.688,136.50300000000001,42.902,136.347,40.631,138.21800000000002C38.363,140.08300000000003,39.244,141.741,41.499,141.8C43.756,141.857,45.051,140.859,45.156000000000006,139.571C45.260000000000005,138.282,46.022000000000006,135.749,48.63000000000001,138.327L50.07600000000001,139.813L50.608000000000004,144.53799999999998C50.608000000000004,144.53799999999998,55.388000000000005,135.83899999999997,57.45700000000001,134.95799999999997C57.45700000000001,134.95799999999997,59.12400000000001,136.50099999999998,59.37400000000001,136.67899999999997C59.62500000000001,136.85699999999997,61.32200000000001,133.43299999999996,65.25000000000001,129.93299999999996C69.17700000000002,126.43299999999996,72.44900000000001,123.67299999999996,73.71800000000002,123.79599999999996C74.98500000000001,123.91299999999997,75.31800000000001,125.82499999999996,76.10800000000002,125.82499999999996S78.45700000000002,125.11599999999996,78.45700000000002,125.11599999999996S79.79800000000002,126.27199999999996,79.99700000000003,128.20799999999997C79.99700000000003,128.20799999999997,85.60700000000003,125.36399999999998,85.55700000000003,122.05799999999996C85.50600000000003,118.75499999999997,83.68700000000003,118.66199999999996,83.79900000000004,114.97799999999997C83.91200000000003,111.29099999999997,87.00600000000003,112.17299999999996,87.05200000000004,110.62099999999997C87.09900000000003,109.07099999999997,83.98900000000003,107.43299999999996,84.07100000000004,104.91099999999997C84.14900000000004,102.38799999999998,84.67700000000004,101.88599999999997,89.47300000000004,98.84799999999997C89.47300000000004,98.84799999999997,91.69300000000004,96.43099999999997,96.01000000000005,99.25799999999997L95.60300000000005,103.52799999999996C95.60300000000005,103.52799999999996,99.54100000000005,107.37699999999997,99.81500000000005,110.52399999999996C100.08900000000006,113.67199999999995,97.83800000000005,110.82399999999996,97.99600000000005,115.66299999999995C98.15300000000005,120.50299999999996,97.70100000000005,120.18599999999995,97.70100000000005,120.18599999999995S92.21600000000005,126.22099999999995,92.80800000000005,128.64499999999995C93.39900000000004,131.07299999999995,97.03600000000004,127.92199999999995,97.24800000000005,132.18799999999996C97.45900000000005,136.45799999999997,97.54100000000005,138.92199999999997,97.54100000000005,138.92199999999997S97.48400000000005,142.62099999999998,94.18600000000005,143.01599999999996C90.88700000000004,143.41199999999995,92.64300000000004,148.91399999999996,92.64300000000004,148.91399999999996L92.86000000000004,153.61099999999996C92.86000000000004,153.61099999999996,92.84400000000004,156.75899999999996,90.62900000000005,157.07599999999996C88.41400000000004,157.39199999999997,89.15000000000005,160.98599999999996,90.03800000000005,161.74199999999996C90.92500000000005,162.49599999999995,91.58800000000005,164.07599999999996,91.45600000000006,165.38799999999995C91.32300000000006,166.70199999999994,88.66200000000006,169.45999999999995,90.19200000000006,171.05799999999994C91.72300000000007,172.65799999999993,94.79100000000007,172.06999999999994,96.01900000000006,170.94699999999995C97.24600000000007,169.82399999999996,98.98300000000006,169.44499999999994,99.65700000000007,170.25599999999994C100.33000000000007,171.06699999999995,98.39800000000007,172.82999999999996,98.45700000000006,173.68199999999993C98.51600000000006,174.53599999999994,101.39300000000006,177.80899999999994,102.85300000000007,178.88499999999993C104.31300000000006,179.96299999999994,104.34100000000007,183.02999999999994,100.25100000000006,184.96299999999994C96.16200000000006,186.89699999999993,93.65700000000007,187.38899999999992,93.65700000000007,187.38899999999992S90.77000000000007,187.94399999999993,89.68500000000007,186.62099999999992C88.59800000000007,185.30499999999992,89.61200000000008,183.97099999999992,88.95300000000007,183.27499999999992C88.29400000000007,182.5819999999999,86.83800000000008,184.00199999999992,85.87100000000008,182.88199999999992C84.90300000000008,181.7609999999999,84.64600000000009,180.51899999999992,84.64600000000009,180.51899999999992L73.84900000000009,180.9329999999999C73.84900000000009,180.9329999999999,66.70800000000008,181.4599999999999,66.90400000000008,185.55399999999992L64.51900000000008,185.8859999999999L64.20200000000008,188.98799999999991C64.20200000000008,188.98799999999991,62.18800000000008,194.32999999999993,61.893000000000086,188.3789999999999C61.893000000000086,188.3789999999999,58.241000000000085,185.3559999999999,55.396000000000086,189.21499999999992C55.396000000000086,189.21499999999992,53.991000000000085,190.8029999999999,54.05100000000009,193.87699999999992L51.961000000000084,194.03699999999992L51.69600000000008,197.30099999999993L50.314000000000085,198.06899999999993L50.11800000000009,201.09599999999992L49.03200000000009,202.59199999999993L48.55900000000009,207.13499999999993L47.03700000000009,207.94199999999992C47.03700000000009,207.94199999999992,48.09600000000009,212.80099999999993,44.48800000000009,212.77799999999993C40.880000000000095,212.74699999999993,40.00300000000009,210.75099999999995,40.00300000000009,210.75099999999995L40.29900000000009,205.52199999999993L38.801000000000094,205.22699999999995L37.2390000000001,200.38699999999994C37.2390000000001,200.38699999999994,34.21000000000009,203.76199999999994,32.4450000000001,203.65299999999993C30.6780000000001,203.53999999999994,31.0780000000001,200.46199999999993,31.0780000000001,200.46199999999993S28.539000000000097,198.83699999999993,28.493000000000098,196.86199999999994C28.448000000000096,194.88699999999994,30.7260000000001,194.69399999999993,30.8460000000001,193.49299999999994C30.9650000000001,192.29199999999994,29.1300000000001,192.17699999999994,29.1300000000001,191.42699999999994C29.1300000000001,190.67899999999995,30.588000000000097,189.79999999999993,30.6740000000001,188.88999999999993C30.7590000000001,187.98199999999994,27.8630000000001,185.61099999999993,26.7200000000001,187.38999999999993C26.7200000000001,187.38999999999993,26.2090000000001,184.59499999999994,24.9380000000001,184.26499999999993C23.667000000000098,183.92899999999992,23.670000000000098,186.48399999999992,23.670000000000098,186.48399999999992S20.0750000000001,185.93299999999994,20.016000000000098,182.30999999999992C19.9560000000001,178.6889999999999,20.1390000000001,177.7009999999999,19.030000000000097,177.56199999999993C17.9210000000001,177.42499999999993,15.116000000000097,179.79799999999992,14.331000000000097,184.44499999999994C14.331000000000097,184.44499999999994,11.971000000000098,184.74199999999993,9.889000000000097,180.80399999999995C7.8080000000000975,176.86499999999995,9.060000000000096,176.86999999999995,9.060000000000096,176.86999999999995L14.604000000000095,176.54599999999994C14.604000000000095,176.54599999999994,13.970000000000095,167.70199999999994,13.734000000000096,166.38399999999993C13.497000000000096,165.06199999999993,15.354000000000095,164.02499999999992,15.550000000000097,163.43499999999992C15.748000000000097,162.84099999999992,16.163000000000096,156.8429999999999,16.163000000000096,156.8429999999999S12.307000000000096,151.6809999999999,8.861000000000097,150.5379999999999C8.859,150.535,12.435,146.074,12.006,143.51L12.006,143.51Z" stroke-miterlimit="10" stroke="#FFFFFF"></path>
    <path name="宜昌市" fill="#D3D3D3" d="M117.963,88.001C117.963,88.001,120.47,88.23700000000001,120.54899999999999,92.343C120.62799999999999,96.45,122.66199999999999,97.12100000000001,122.66199999999999,97.12100000000001S125.02799999999999,96.84700000000001,128.37,94.58000000000001C128.37,94.58000000000001,130.02700000000002,94.79400000000001,133.705,99.54800000000002L137.287,99.41200000000002C137.287,99.41200000000002,138.723,102.75900000000001,140.683,102.73700000000002C142.643,102.71500000000002,146.134,99.44900000000003,148.17399999999998,99.33600000000003C150.21499999999997,99.22400000000003,151.307,100.06300000000003,151.66599999999997,103.15300000000002C151.66599999999997,103.15300000000002,153.44099999999997,105.86700000000002,156.17099999999996,105.69000000000003L157.24299999999997,105.88900000000002C157.24299999999997,105.88900000000002,158.98699999999997,114.94400000000002,164.92099999999996,122.04800000000003L164.55299999999997,133.49300000000002L160.42699999999996,139.96200000000002C160.42699999999996,139.96200000000002,158.44199999999995,141.829,158.51299999999998,142.87C158.58199999999997,143.919,160.468,145.179,160.468,145.179L160.82299999999998,147.697L164.634,151.572L159.65699999999998,152.025C159.65699999999998,152.025,158.13899999999998,153.87300000000002,157.36499999999998,153.73600000000002C156.58999999999997,153.597,153.469,149.28500000000003,153.469,149.28500000000003S152.362,147.41200000000003,149.59799999999998,149.81400000000002C146.83399999999997,152.216,145.35299999999998,152.51900000000003,145.23399999999998,157.00700000000003C145.11599999999999,161.49300000000002,145.05599999999998,162.20400000000004,145.05599999999998,162.20400000000004S140.873,162.06500000000003,137.003,163.38200000000003C133.13299999999998,164.70200000000003,131.195,167.84900000000005,131.195,167.84900000000005S122.625,167.09300000000005,120.63999999999999,167.85100000000006C120.63999999999999,167.85100000000006,116.463,163.06200000000007,113.29499999999999,162.82000000000005C110.12899999999999,162.57400000000004,108.45499999999998,166.67200000000005,108.45499999999998,166.67200000000005L102.68499999999999,166.60200000000006C102.68499999999999,166.60200000000006,98.65499999999999,166.25000000000006,99.05299999999998,169.49500000000006L99.09399999999998,169.93300000000005C99.09399999999998,169.93300000000005,98.75499999999998,169.59300000000005,97.86699999999998,169.89600000000004C96.97999999999998,170.19900000000004,95.10499999999998,171.97800000000004,92.73499999999997,171.96000000000004C90.36599999999997,171.94000000000003,89.65399999999997,170.88800000000003,89.69099999999997,170.06700000000004C89.72899999999997,169.24300000000002,90.31999999999998,166.95800000000003,91.20999999999998,165.08500000000004C92.10099999999998,163.21400000000003,88.99599999999998,161.86400000000003,88.99599999999998,159.22200000000004S91.23499999999999,157.37200000000004,92.00799999999998,156.46200000000005C92.77899999999998,155.56000000000006,92.73799999999999,149.43500000000006,92.73799999999999,149.43500000000006S91.61299999999999,145.80600000000007,92.16599999999998,144.52300000000005C92.71899999999998,143.23600000000005,93.60399999999998,143.00900000000004,94.14299999999999,143.00900000000004C94.68099999999998,143.00900000000004,97.86799999999998,143.01300000000003,97.38399999999999,135.96200000000005L97.16599999999998,131.89600000000004C97.16599999999998,131.89600000000004,97.38599999999998,129.47400000000005,94.10499999999999,129.45500000000004C90.82499999999999,129.44300000000004,94.05999999999999,123.70700000000004,97.65799999999999,120.22300000000004L98.02199999999999,114.63500000000005C98.02199999999999,114.63500000000005,97.78299999999999,113.07800000000005,98.934,112.24600000000005L99.768,112C99.768,112,100.209,107.914,95.605,103.44800000000001L95.99000000000001,99.12700000000001C95.99000000000001,99.12700000000001,97.01100000000001,99.76100000000001,97.593,98.18100000000001C98.175,96.60300000000001,98.406,93.74200000000002,103.131,94.07300000000001C107.854,94.40400000000001,109.417,92.30600000000001,110.01,91.099C110.01,91.099,112.653,93.90400000000001,114.06,93.745C115.468,93.586,118.573,89.758,117.963,88.001L117.963,88.001Z" stroke-miterlimit="10" stroke="#FFFFFF"></path>
    <path name="孝感市" fill="#D3D3D3" d="M249.021,71.503C249.021,71.503,250.136,69.536,251.59599999999998,69.315C253.05499999999998,69.095,257.518,74.195,259.589,74.62299999999999C261.658,75.04899999999999,266.252,75.00699999999999,267.792,74.26899999999999C269.332,73.532,268.71,81.318,268.71,81.318S266.76099999999997,86.557,266.608,88.451C266.461,90.34599999999999,264.234,91.169,264.20300000000003,94.303L264.29100000000005,95.871L259.22400000000005,95.048C259.22400000000005,95.048,252.00900000000004,95.009,256.29600000000005,103.18900000000001C256.29600000000005,103.18900000000001,252.74800000000005,107.98700000000001,252.83700000000005,110.82400000000001C252.92600000000004,113.66000000000001,254.09300000000005,117.53300000000002,254.23200000000006,118.61700000000002C254.37100000000007,119.70300000000002,254.08400000000006,123.49400000000001,254.08400000000006,123.49400000000001L248.36800000000005,123.58200000000001C248.36800000000005,123.58200000000001,243.29200000000006,121.17800000000001,244.04800000000006,128.30100000000002C244.80800000000005,135.42200000000003,239.70300000000006,139.918,234.54500000000007,143.74200000000002L233.58100000000007,143.40200000000002C233.58100000000007,143.40200000000002,232.96300000000008,140.83800000000002,230.88700000000009,140.45100000000002S225.8770000000001,143.81600000000003,225.8770000000001,143.81600000000003L223.7420000000001,140.57000000000002L223.20900000000012,129.59000000000003C223.20900000000012,129.59000000000003,222.6650000000001,123.24600000000004,219.3920000000001,118.73800000000003C219.3920000000001,118.73800000000003,217.87600000000012,114.85700000000003,222.4680000000001,111.90400000000002C227.0610000000001,108.94900000000003,229.17300000000012,105.52800000000002,220.07200000000012,100.13600000000002L217.7490000000001,98.02900000000002L216.9140000000001,97.67600000000003C216.9140000000001,97.67600000000003,218.6050000000001,90.62400000000002,221.8460000000001,91.40900000000003C225.0850000000001,92.19500000000004,225.6520000000001,95.42300000000003,228.70700000000008,93.17500000000004C228.70700000000008,93.17500000000004,231.14600000000007,94.88600000000004,231.34200000000007,94.79100000000004C231.54000000000008,94.69600000000004,232.76700000000008,90.66500000000003,234.48500000000007,90.83500000000004C236.20200000000008,91.00400000000003,237.14200000000008,92.01200000000004,237.92800000000008,92.10300000000004C238.71200000000007,92.19500000000004,238.31900000000007,90.56700000000004,240.4230000000001,91.04000000000003C242.5270000000001,91.51200000000003,243.0910000000001,92.48600000000003,243.0910000000001,92.48600000000003S245.1470000000001,92.23000000000003,248.6230000000001,89.59300000000003L249.021,71.503L249.021,71.503Z" stroke-miterlimit="10" stroke="#FFFFFF"></path>
    <path name="荆门市" fill="#D3D3D3" d="M192.189,84.045C192.189,84.045,191.20499999999998,82.743,195.511,86.273C199.819,89.803,202.734,92.471,202.734,92.471S208.425,92.677,209.31300000000002,92.914C210.20000000000002,93.15,213.57500000000002,94.751,219.447,99.25C225.323,103.747,226.328,104.711,226.423,106.85C226.518,108.987,224.223,111.18299999999999,222.486,112.27699999999999C220.75199999999998,113.37099999999998,219.214,115.69899999999998,218.891,117.96799999999999C218.891,117.96799999999999,217.278,119.478,216.774,120.15699999999998C216.27,120.83499999999998,215.723,122.98899999999998,215.262,123.34499999999998C214.801,123.69899999999998,213.129,124.63399999999999,210.21,123.47799999999998C210.21,123.47799999999998,205.592,126.74799999999998,205.02800000000002,128.44899999999998C205.02800000000002,128.44899999999998,204.04800000000003,129.392,202.073,129.30999999999997C200.1,129.22999999999996,197.262,128.09099999999998,196.93300000000002,126.96999999999997C196.60500000000002,125.84499999999997,197.37300000000002,122.54199999999997,193.74500000000003,126.00499999999997C190.11700000000002,129.46999999999997,188.75200000000004,130.47399999999996,188.75200000000004,130.47399999999996S187.74800000000005,131.98399999999995,189.58700000000005,134.15599999999995L190.12400000000005,134.77899999999994C190.12400000000005,134.77899999999994,188.99900000000005,140.45699999999994,188.07900000000006,141.74199999999993C187.16000000000005,143.02499999999992,184.13300000000007,146.13499999999993,183.20900000000006,146.19899999999993C182.28800000000007,146.25799999999992,179.39900000000006,146.55799999999994,177.28700000000006,144.59199999999993C175.17400000000006,142.62899999999993,173.45200000000006,142.08999999999992,172.69300000000007,142.02899999999994C171.93600000000006,141.96799999999993,170.83900000000006,143.22199999999995,170.83900000000006,143.22199999999995L164.43100000000007,133.63999999999996L164.59300000000007,121.96399999999996C164.59300000000007,121.96399999999996,157.4410000000001,111.77599999999995,156.95400000000006,105.58999999999996C156.95400000000006,105.58999999999996,158.62500000000006,103.62299999999996,158.61000000000007,100.85099999999996C158.59400000000008,98.07799999999996,157.99900000000008,96.30999999999996,159.24500000000006,95.11299999999996C160.49100000000007,93.91599999999995,162.39200000000005,94.27599999999995,165.40600000000006,94.93299999999995C165.40600000000006,94.93299999999995,167.68600000000006,94.05799999999995,170.72400000000007,89.53099999999995L179.31100000000006,89.69299999999996C179.31100000000006,89.69299999999996,182.39800000000005,88.68999999999996,184.02900000000005,88.74899999999995C185.65900000000005,88.80899999999995,187.59500000000006,91.23399999999995,189.24400000000006,91.23999999999995C190.895,91.244,191.316,90.342,192.189,84.045L192.189,84.045Z" stroke-miterlimit="10" stroke="#FFFFFF"></path>
    <path name="荆州市" fill="#D3D3D3" d="M131.091,167.957C131.091,167.957,132.466,162.254,145.044,162.297L145.055,156.865C145.055,156.865,144.74,153.25400000000002,147.916,150.92700000000002C151.091,148.60100000000003,152.233,146.76900000000003,154.809,151.09900000000002C154.809,151.09900000000002,156.68699999999998,153.55400000000003,157.083,153.632C157.47899999999998,153.714,157.893,153.22,159.791,152.023L164.413,151.607L160.80100000000002,147.574C160.80100000000002,147.574,160.824,146.39800000000002,160.447,145.269C160.068,144.138,158.91400000000002,144.939,158.547,142.88C158.547,142.88,157.793,142.49099999999999,159.771,140.843L164.43499999999997,133.505L170.71099999999998,143.021C170.71099999999998,143.021,171.93499999999997,142.02499999999998,173.028,141.91699999999997C174.12099999999998,141.81199999999998,175.589,143.41299999999998,176.878,144.33699999999996C178.16799999999998,145.26499999999996,180.51299999999998,146.39199999999997,181.85899999999998,146.26499999999996C183.20499999999998,146.13999999999996,183.564,146.27499999999995,183.564,146.27499999999995L183.623,149.99399999999994L186.167,153.38999999999993L186.519,158.54199999999992C186.519,158.54199999999992,190.982,160.6049999999999,193.191,162.4209999999999C193.191,162.4209999999999,194.317,163.1769999999999,196.25300000000001,160.8529999999999C198.18900000000002,158.52299999999988,198.306,158.2339999999999,199.90800000000002,158.2339999999999C201.51000000000002,158.2339999999999,203.204,159.2359999999999,203.58200000000002,159.2359999999999S206.19600000000003,156.9099999999999,206.19600000000003,156.9099999999999L206.57500000000002,156.9669999999999C206.57500000000002,156.9669999999999,208.34300000000002,158.1919999999999,209.68,158.3419999999999C211.019,158.4939999999999,213.626,158.2289999999999,213.626,158.2289999999999S217.556,156.1999999999999,219.387,156.3309999999999C221.22,156.4619999999999,227.537,159.6279999999999,231.43,159.4089999999999C235.32500000000002,159.1919999999999,238.679,155.2639999999999,241.305,154.7249999999999C243.933,154.19199999999992,247.215,154.86399999999992,248.163,155.34599999999992C249.11100000000002,155.8259999999999,254.28300000000002,158.5709999999999,246.02800000000002,162.62099999999992C246.02800000000002,162.62099999999992,242.651,164.24799999999993,240.42200000000003,167.41799999999992C240.42200000000003,167.41799999999992,238.13400000000001,168.59799999999993,236.35200000000003,168.86899999999991C232.47900000000004,169.4739999999999,231.77600000000004,171.39999999999992,229.20700000000002,174.01399999999992C226.63800000000003,176.62499999999991,222.103,180.98499999999993,222.103,180.98499999999993S217.71300000000002,184.83699999999993,215.401,188.27399999999992C213.091,191.7079999999999,210.464,194.37599999999992,210.464,194.37599999999992S209.277,195.60799999999992,207.558,191.91299999999993C207.558,191.91299999999993,207.667,190.75299999999993,204.742,192.91899999999993C204.742,192.91899999999993,203.15699999999998,193.77799999999993,202.70399999999998,188.77399999999992C202.254,183.76999999999992,202.545,179.3789999999999,200.551,178.41299999999993C198.558,177.44999999999993,195.20299999999997,184.37199999999993,195.20299999999997,184.37199999999993S193.09899999999996,188.34899999999993,191.39299999999997,188.21199999999993C189.68599999999998,188.07299999999992,189.59199999999998,186.79199999999994,189.59199999999998,186.79199999999994L183.55599999999998,187.08499999999995L178.141,192.02099999999996C178.141,192.02099999999996,175.022,194.92099999999996,175.081,190.44699999999995C175.14,185.97799999999995,175.04299999999998,187.78499999999994,175.04299999999998,187.78499999999994S173.80899999999997,186.73799999999994,173.32799999999997,186.72199999999995C172.84799999999998,186.70799999999994,171.46899999999997,186.66299999999995,171.46899999999997,186.66299999999995S170.77999999999997,184.79199999999994,168.80299999999997,184.67499999999995C166.82599999999996,184.55599999999995,165.73999999999998,184.57699999999994,165.73999999999998,184.57699999999994L165.22799999999998,179.85799999999995C165.22799999999998,179.85799999999995,164.42299999999997,179.88099999999994,159.83899999999997,177.41899999999995C155.25599999999997,174.95799999999994,153.05399999999997,174.09499999999994,153.05399999999997,174.09499999999994S151.17399999999998,172.35099999999994,149.09999999999997,174.56999999999994L143.12899999999996,174.98599999999993C143.128,174.984,132.257,171.309,131.091,167.957L131.091,167.957Z" stroke-miterlimit="10" stroke="#FFFFFF"></path>
    <path name="江汉市" fill="#D3D3D3" d="M183.618,146.195C183.618,146.195,188.159,142.17,188.159,141.933S189.968,135.027,189.968,135.027S188.101,132.69099999999997,188.34,131.34699999999998C188.57500000000002,130.00499999999997,190.501,129.00099999999998,190.501,129.00099999999998L195.074,124.86999999999998C195.074,124.86999999999998,196.58800000000002,123.71399999999997,196.81900000000002,125.60799999999998L196.955,127.24699999999997C196.955,127.24699999999997,199.651,129.42499999999998,202.41600000000003,129.23899999999998C205.18000000000004,129.05299999999997,205.17700000000002,127.88399999999997,205.71600000000004,127.15699999999998C206.25600000000003,126.43199999999999,209.92200000000003,123.69399999999999,209.92200000000003,123.69399999999999S210.75100000000003,123.368,211.76000000000002,123.737L213.996,124.018C213.996,124.018,215.627,123.077,216.455,120.641C216.455,120.641,218.125,118.495,218.556,118.235L219.062,116.628L219.268,118.517C219.268,118.517,223.167,123.279,223.27100000000002,129.382C223.37500000000003,135.484,223.656,140.661,223.656,140.661L225.582,143.52C225.582,143.52,227.78,141.02200000000002,229.12099999999998,140.69400000000002C230.463,140.36200000000002,232.707,140.174,233.72799999999998,143.54000000000002C233.72799999999998,143.54000000000002,236.349,144.70600000000002,237.32699999999997,148.11200000000002C238.30399999999997,151.51600000000002,238.30399999999997,150.97100000000003,238.30399999999997,150.97100000000003L241.81299999999996,154.47900000000004C241.81299999999996,154.47900000000004,240.54299999999995,154.65300000000005,234.96499999999995,158.40300000000005C234.96499999999995,158.40300000000005,232.10999999999996,159.90300000000005,230.70199999999994,159.90300000000005C229.29699999999994,159.90300000000005,221.69799999999995,156.76200000000006,219.65599999999995,156.48100000000005C217.61299999999994,156.20200000000006,214.88199999999995,158.27400000000006,213.94699999999995,158.28000000000006C213.01099999999994,158.28600000000006,209.10599999999994,159.03400000000005,208.37899999999993,158.13400000000007C207.65099999999993,157.23800000000008,206.13799999999992,157.09300000000007,206.13799999999992,157.09300000000007S204.73599999999993,158.24700000000007,204.30499999999992,158.85300000000007C203.87299999999993,159.46000000000006,202.90199999999993,159.16200000000006,201.03099999999992,158.38000000000005C199.16199999999992,157.59900000000005,198.0279999999999,158.70200000000006,196.55699999999993,160.40100000000004C195.08699999999993,162.10000000000005,193.91599999999994,164.01400000000004,190.52899999999994,160.47500000000005C190.52899999999994,160.47500000000005,186.90199999999993,158.94400000000005,186.71899999999994,158.49800000000005C186.53299999999993,158.04700000000005,186.21499999999995,153.33000000000004,186.21499999999995,153.33000000000004L183.63799999999995,150.20500000000004L183.618,146.195L183.618,146.195Z" stroke-miterlimit="10" stroke="#FFFFFF"></path>
    <path name="武汉市" fill="#D3D3D3" d="M233.713,143.508C233.713,143.508,234.301,143.858,235.688,142.977C237.077,142.094,243.838,136.147,244.058,130.893C244.27599999999998,125.641,243.458,126.733,244.331,124.883C245.203,123.03699999999999,246.09199999999998,122.59599999999999,248.011,123.40599999999999L254.053,123.437L254.233,118.443C254.233,118.443,252.453,112.437,252.616,110.992C252.775,109.543,254.26100000000002,105.42500000000001,256.30600000000004,103.197C256.30600000000004,103.197,254.02600000000004,100.398,255.27000000000004,97.468C256.516,94.538,258.56700000000006,94.893,260.01300000000003,95.168S264.38000000000005,95.876,264.38000000000005,95.876L264.27600000000007,101.96600000000001C264.27600000000007,101.96600000000001,266.5470000000001,103.71100000000001,267.99000000000007,108.65200000000002C269.43100000000004,113.59200000000001,272.46900000000005,115.57900000000001,274.2870000000001,115.57900000000001C276.10300000000007,115.57900000000001,277.0650000000001,112.82900000000001,278.55500000000006,112.86600000000001C280.04100000000005,112.90500000000002,280.7680000000001,114.95600000000002,280.7680000000001,114.95600000000002S282.3440000000001,114.92300000000002,282.9800000000001,112.35200000000002C283.6160000000001,109.78100000000002,284.9840000000001,107.90400000000002,287.96600000000007,111.22700000000002C290.94500000000005,114.55300000000001,294.14700000000005,116.92400000000002,294.21900000000005,117.44200000000002C294.2950000000001,117.95800000000003,292.92500000000007,118.96900000000002,291.49600000000004,119.25600000000003C290.07000000000005,119.54500000000003,288.24300000000005,119.10600000000002,286.68500000000006,120.20100000000002C285.12800000000004,121.29300000000002,281.51300000000003,125.01900000000002,281.51300000000003,125.01900000000002S283.24300000000005,128.15400000000002,283.14900000000006,129.12800000000001C283.05600000000004,130.10500000000002,282.2440000000001,131.29600000000002,282.2440000000001,131.29600000000002S279.8860000000001,130.36400000000003,277.4870000000001,132.17900000000003C275.0900000000001,133.99200000000002,272.3710000000001,137.65000000000003,272.3710000000001,137.65000000000003L272.4480000000001,149.01700000000002C272.4480000000001,149.01700000000002,269.4080000000001,152.37600000000003,269.4080000000001,154.39000000000001C269.4080000000001,156.39800000000002,270.36300000000006,158.568,272.4080000000001,159.935L271.4820000000001,164.089C271.4820000000001,164.089,267.16300000000007,162.265,264.9890000000001,162.339S259.81200000000007,163.99099999999999,259.81200000000007,163.99099999999999H257.71700000000004L256.84900000000005,160.88C256.84900000000005,160.88,255.88000000000005,157.755,252.01600000000005,155.001C248.15200000000004,152.25300000000001,246.72000000000006,150.556,246.72000000000006,150.556S242.67700000000005,149.163,242.26600000000005,153.40800000000002L242.58200000000005,154.51700000000002H241.55500000000006C241.55500000000006,154.51700000000002,238.44000000000005,151.92700000000002,237.99600000000007,150.46400000000003C237.553,149,236.982,145.092,233.713,143.508L233.713,143.508Z" stroke-miterlimit="10" stroke="#FFFFFF"></path>
    <path name="咸宁市" fill="#D3D3D3" d="M227.99,175.09C227.99,175.09,227.746,179.354,229.959,181.28300000000002C232.177,183.215,234.46800000000002,183.36700000000002,234.46800000000002,183.36700000000002S236.181,184.84400000000002,234.68200000000002,186.67200000000003L234.33200000000002,188.97100000000003C234.33200000000002,188.97100000000003,238.17900000000003,191.46700000000004,238.03900000000002,192.72700000000003C237.89900000000003,193.98300000000003,236.42100000000002,196.50000000000003,235.25500000000002,197.71900000000002C234.08900000000003,198.93400000000003,232.72400000000002,200.05900000000003,232.84400000000002,200.86700000000002C232.961,201.67600000000002,233.17000000000002,202.437,234.50500000000002,203.46500000000003C235.842,204.48800000000003,236.33900000000003,205.99400000000003,236.33,206.51200000000003C236.31900000000002,207.03000000000003,235.08,208.26200000000003,235.101,208.71500000000003C235.123,209.17200000000003,235.648,210.68400000000003,236.74099999999999,211.35800000000003C237.83399999999997,212.03400000000002,238.26,212.68200000000004,240.98899999999998,211.22700000000003C240.98899999999998,211.22700000000003,241.98,210.39500000000004,242.736,212.56300000000005C242.736,212.56300000000005,243.005,213.95000000000005,245.44,213.66500000000005C247.874,213.38000000000005,247.399,210.57900000000004,250.655,207.96200000000005C250.655,207.96200000000005,252.617,204.93900000000005,254.189,204.43700000000004C255.76399999999998,203.93700000000004,256.312,203.91200000000003,257.51099999999997,204.04400000000004C258.712,204.17500000000004,259.86699999999996,201.63400000000004,260.006,200.75900000000004C260.147,199.88600000000005,260.72099999999995,197.29800000000003,263.20399999999995,197.21800000000005C265.68899999999996,197.14200000000005,272.68699999999995,197.51500000000004,272.68699999999995,197.51500000000004S275.54099999999994,194.13200000000003,277.26499999999993,194.07200000000003C278.98799999999994,194.01300000000003,280.17299999999994,195.76300000000003,281.0209999999999,195.76300000000003C281.8719999999999,195.76300000000003,282.5389999999999,194.21200000000005,284.9689999999999,193.91500000000002C287.4009999999999,193.616,292.4569999999999,191.78600000000003,286.0189999999999,190.68500000000003L286.7279999999999,188.16400000000004L289.8229999999999,188.73400000000004L290.47399999999993,186.15800000000004L291.20399999999995,184.85700000000006C291.20399999999995,184.85700000000006,289.18699999999995,183.51500000000004,287.33799999999997,181.18300000000005C285.486,178.84900000000005,285.751,175.66500000000005,285.751,175.66500000000005S283.685,175.54000000000005,281.15299999999996,172.94400000000005C278.62399999999997,170.34600000000003,279.56999999999994,170.76000000000005,279.56999999999994,170.76000000000005L279.78799999999995,165.48900000000006L278.61899999999997,164.46200000000007C278.61899999999997,164.46200000000007,273.80999999999995,164.60800000000006,272.955,164.54600000000008C272.09999999999997,164.48000000000008,271.34999999999997,163.99300000000008,271.34999999999997,163.99300000000008S268.022,162.37800000000007,265.19399999999996,162.31900000000007C262.36699999999996,162.25800000000007,259.72599999999994,163.87400000000008,259.72599999999994,163.87400000000008L257.63199999999995,163.99300000000008C257.63199999999995,163.99300000000008,257.68999999999994,158.77000000000007,251.70999999999995,154.7980000000001C247.91499999999996,152.2820000000001,247.11799999999994,150.5910000000001,247.11799999999994,150.5910000000001S241.48799999999994,149.1090000000001,242.44799999999995,154.4330000000001C242.44799999999995,154.4330000000001,249.65399999999994,154.7400000000001,250.47599999999994,157.7040000000001C250.47599999999994,157.7040000000001,251.21099999999996,160.11200000000008,246.23499999999996,162.4150000000001C241.25799999999995,164.7200000000001,240.51899999999995,167.3600000000001,240.51899999999995,167.3600000000001S236.67199999999994,168.4030000000001,233.84999999999994,169.6240000000001C231.027,170.842,227.99,175.09,227.99,175.09L227.99,175.09Z" stroke-miterlimit="10" stroke="#FFFFFF"></path>
    <path name="黄石市" fill="#D3D3D3" d="M279.752,165.527L279.587,170.98C279.587,170.98,281.383,174.39399999999998,285.507,175.59699999999998C285.507,175.59699999999998,285.133,181.10099999999997,291.077,184.81799999999998L291.293,184.00699999999998C291.293,184.00699999999998,294.015,185.462,295.409,185.86399999999998C296.805,186.26199999999997,297.041,186.319,297.041,186.319L297.323,187.50099999999998L299.532,187.49899999999997L300.582,185.59299999999996L301.07099999999997,184.19499999999996C301.07099999999997,184.19499999999996,299.777,184.87499999999997,299.426,184.79699999999997C299.074,184.72499999999997,296.905,182.24399999999997,296.86,181.44899999999996C296.81600000000003,180.64999999999995,297.524,179.61499999999995,298.176,179.61499999999995C298.83099999999996,179.61499999999995,299.14099999999996,180.68299999999996,299.525,180.70699999999997C299.91299999999995,180.73199999999997,302.78499999999997,180.07399999999996,302.78499999999997,180.07399999999996L303.33299999999997,181.65199999999996C303.33299999999997,181.65199999999996,303.59799999999996,182.87899999999996,305.938,181.00399999999996C308.281,179.12499999999997,309.287,178.51199999999997,310.279,176.83999999999997C311.274,175.16799999999998,313.462,169.62499999999997,313.462,169.62499999999997S308.303,165.85699999999997,307.695,164.75199999999998C307.084,163.64799999999997,304.396,160.18399999999997,303.88599999999997,157.80899999999997C303.37899999999996,155.42599999999996,301.883,153.03899999999996,300.957,152.18199999999996C300.03,151.32099999999997,296.762,150.52799999999996,296.155,150.30299999999997C295.54799999999994,150.08399999999997,293.41099999999994,148.87299999999996,293.41099999999994,148.87299999999996S290.64599999999996,151.43699999999995,289.92999999999995,151.40599999999995C289.21199999999993,151.38099999999994,285.58899999999994,150.18899999999994,284.9359999999999,149.16799999999995C284.28399999999993,148.14799999999994,282.6859999999999,146.59799999999996,282.6859999999999,146.59799999999996S280.0499999999999,146.63899999999995,279.0439999999999,146.77599999999995C278.03599999999994,146.91499999999996,274.2679999999999,147.76599999999996,275.10599999999994,150.34599999999995C275.94499999999994,152.92799999999994,278.83399999999995,155.07799999999995,278.8829999999999,156.02799999999993S278.3449999999999,160.14699999999993,275.37299999999993,160.29599999999994C272.40399999999994,160.44199999999992,272.31499999999994,160.09099999999992,272.31499999999994,160.09099999999992L271.56299999999993,164.15899999999993C271.56299999999993,164.15899999999993,273.3089999999999,164.71799999999993,276.0109999999999,164.40699999999993C279.003,164.066,279.752,165.527,279.752,165.527L279.752,165.527Z" stroke-miterlimit="10" stroke="#FFFFFF"></path>
    <path name="鄂州市" fill="#D3D3D3" d="M272.36,149.195L272.30400000000003,137.48C272.30400000000003,137.48,277.05800000000005,131.755,278.73800000000006,131.244C280.4200000000001,130.732,282.119,131.338,282.119,131.338L283.341,133.779L283.302,138.734L285.59200000000004,141.31L289.12700000000007,141.486C289.12700000000007,141.486,293.58400000000006,140.373,294.53400000000005,144.84699999999998L294.5040000000001,146.15399999999997C294.5040000000001,146.15399999999997,294.64900000000006,147.55999999999997,293.26000000000005,148.88399999999996C291.87300000000005,150.20999999999995,289.93500000000006,151.56999999999996,289.93500000000006,151.56999999999996S284.62600000000003,150.61699999999996,283.08500000000004,146.71299999999997L278.99300000000005,146.60799999999998C278.99300000000005,146.60799999999998,275.01200000000006,147.59199999999998,274.93000000000006,149.40499999999997C274.84800000000007,151.22099999999998,277.1140000000001,153.63699999999997,277.49600000000004,154.17499999999998C277.879,154.71599999999998,279.619,155.60099999999997,278.57200000000006,157.78799999999998S276.0710000000001,160.54,274.34400000000005,160.36399999999998C272.6170000000001,160.19599999999997,270.73800000000006,159.61799999999997,269.8310000000001,156.75999999999996C268.923,153.906,268.97,153.26,272.36,149.195L272.36,149.195Z"  stroke-miterlimit="10" stroke="#FFFFFF"></path>
    <path name="黄冈市" fill="#D3D3D3" d="M282.04,131.207C282.04,131.207,283.065,129.838,283.062,128.97799999999998C283.057,128.12099999999998,281.488,125.08199999999998,281.488,125.08199999999998L286.42,120.29899999999998C286.42,120.29899999999998,287.209,119.29499999999997,289.605,119.33399999999997C291.99600000000004,119.37499999999997,294.346,117.65999999999997,294.346,117.65999999999997L287.26800000000003,110.53299999999997C287.26800000000003,110.53299999999997,285.26800000000003,109.00599999999997,284.603,109.31399999999998C283.935,109.62399999999998,282.915,111.99199999999998,282.668,112.98999999999998C282.422,113.98599999999998,280.75100000000003,115.01899999999998,280.75100000000003,115.01899999999998S279.706,112.95599999999997,278.69700000000006,112.87399999999998C277.68800000000005,112.79599999999998,276.34000000000003,115.35099999999998,274.16200000000003,115.50499999999998C271.98100000000005,115.65699999999998,269.425,113.05399999999999,268.79200000000003,110.98399999999998C268.156,108.90699999999998,266.6,103.85999999999999,264.27000000000004,102.13699999999999L264.25200000000007,95.90099999999998L264.27700000000004,93.10299999999998C264.27700000000004,93.10299999999998,264.903,90.93499999999997,266.29100000000005,89.44199999999998C266.29100000000005,89.44199999999998,267.27700000000004,83.74099999999999,268.4080000000001,82.08099999999997L270.18300000000005,82.73799999999997C270.18300000000005,82.73799999999997,271.58600000000007,82.41299999999997,271.94300000000004,82.40199999999997C272.30100000000004,82.39099999999998,274.41100000000006,81.98599999999998,274.21600000000007,84.29299999999998L277.15700000000004,84.66999999999997C277.15700000000004,84.66999999999997,279.98100000000005,86.31199999999997,279.446,88.99599999999997C279.446,88.99599999999997,280.23900000000003,90.96199999999996,282.367,88.78099999999996C282.367,88.78099999999996,283.084,87.83699999999996,284.226,87.77399999999996C285.368,87.71099999999996,287.249,88.06799999999996,287.8,88.00999999999996C288.355,87.94899999999996,289.74,88.52899999999997,291.023,83.95199999999997L291.134,81.72199999999997C291.134,81.72199999999997,291.846,80.36399999999996,292.831,80.26599999999996C293.815,80.16899999999997,295.244,81.68399999999997,295.244,81.68399999999997L296.60600000000005,82.18899999999996L296.80400000000003,88.99499999999996L297.692,89.79699999999997L298.403,89.77799999999996V91.13299999999997H300.872L301.88100000000003,90.36599999999997L302.81100000000004,92.51199999999997L306.03000000000003,92.90599999999998C306.03000000000003,92.90599999999998,309.055,95.80299999999998,309.564,97.07399999999998C310.072,98.34499999999998,311.32,100.94299999999998,312.25,100.91399999999999C313.18,100.88599999999998,315.627,98.65299999999999,315.627,98.65299999999999S317.735,97.65799999999999,318.725,100.54299999999999C319.71700000000004,103.42699999999999,321.012,102.47399999999999,322.319,102.43499999999999C323.62600000000003,102.39399999999999,324.51800000000003,101.82,324.51800000000003,101.82L325.483,101.97699999999999C325.483,101.97699999999999,325.144,103.33099999999999,325.54,103.78299999999999C325.93600000000004,104.23899999999999,329.944,107.21,329.944,107.21L332.01500000000004,107.366C332.01500000000004,107.366,333.956,109.142,333.968,109.976C333.98,110.812,331.24,110.727,331.24,110.727L326.755,114.667L324.859,114.468L325.195,118.351L322.257,121.974C322.257,121.974,321.216,123.41300000000001,321.94100000000003,124.535C322.66400000000004,125.658,324.50300000000004,128.392,324.50300000000004,128.392L324.42500000000007,129.531L328.01700000000005,129.433L327.93800000000005,134.451C327.93800000000005,134.451,328.33200000000005,136.43699999999998,329.242,137.402L328.564,139.172C328.564,139.172,327.422,140.889,327.67400000000004,141.807C327.925,142.72899999999998,329.192,144.024,331.307,144.368C333.42400000000004,144.708,335.889,149.636,336.245,151.858C336.599,154.08700000000002,336.914,160.26,336.914,160.26S339.832,162.87699999999998,340.01599999999996,165.664C340.198,168.44299999999998,338.88699999999994,169.195,337.22999999999996,170.44699999999997C335.57699999999994,171.70099999999996,330.203,174.58199999999997,330.203,174.58199999999997S329.48999999999995,175.22299999999996,327.55199999999996,173.42199999999997C325.61499999999995,171.62099999999998,322.265,169.32399999999996,321.07199999999995,169.04499999999996C319.87799999999993,168.76199999999997,318.40299999999996,168.27699999999996,316.64399999999995,168.45299999999995C314.888,168.63099999999994,313.38699999999994,169.68899999999994,313.38699999999994,169.68899999999994S307.64199999999994,165.15399999999994,307.46399999999994,164.73599999999993S304.10999999999996,159.45499999999993,303.73299999999995,157.77699999999993C303.35999999999996,156.10299999999992,302.54699999999997,151.56399999999994,296.7099999999999,150.51499999999993C296.7099999999999,150.51499999999993,293.71899999999994,149.47599999999994,293.24999999999994,149.07699999999994C293.24999999999994,149.07699999999994,294.94699999999995,147.52599999999995,294.41499999999996,144.83299999999994C293.881,142.13599999999994,291.88599999999997,141.20599999999993,290.16499999999996,141.28799999999995C288.44699999999995,141.36399999999995,285.64099999999996,141.44399999999996,285.64099999999996,141.44399999999996L283.258,138.83699999999996L283.23699999999997,133.42899999999997L282.04,131.207L282.04,131.207Z"  stroke-miterlimit="10" stroke="#FFFFFF"></path>
</svg>